<svg width="85" height="32" viewBox="0 0 85 32" fill="none" xmlns="http://www.w3.org/2000/svg">
<mask id="mask0_2_167" style="mask-type:luminance" maskUnits="userSpaceOnUse" x="0" y="0" width="85" height="32">
<path d="M84.2857 0.824341H0.714233V31.7767H84.2857V0.824341Z" fill="white"/>
</mask>
<g mask="url(#mask0_2_167)">
<path fill-rule="evenodd" clip-rule="evenodd" d="M11.5674 5.477L9.69114 0.824341H18.0314L30.099 30.745H21.7588L18.8668 23.5754H8.26362L5.33078 30.745H1.2301L11.5674 5.477ZM13.603 10.5239L9.67102 20.1359H17.4794L13.603 10.5239ZM40.9367 17.367H50.6074L52.0271 13.8705H40.9367V4.42668H53.0661L54.528 0.824341H33.192V30.745H53.3818L54.8438 27.1419H40.9367V17.367ZM76.595 17.703H71.5663L72.9643 14.1355H83.713V29.9821C81.2049 30.8689 78.1571 31.7767 73.4575 31.7767C64.0211 31.7767 57.9369 25.3786 57.9369 16.3005C57.9369 7.10912 64.2719 0.824341 73.248 0.824341H82.4904L81.0511 4.49983H74.0672C67.5136 4.49983 65.8122 10.8972 65.8122 16.3005C65.8122 21.9322 67.7953 28.2985 74.5749 28.2985C75.3043 28.2992 75.9935 28.2006 76.595 28.0336V17.703Z" fill="#333333"/>
</g>
</svg>
