<svg width="47" height="58" viewBox="0 0 47 58" fill="none" xmlns="http://www.w3.org/2000/svg">
<path d="M44.7539 20.2722C44.4299 20.5276 38.7192 23.8018 38.7192 31.0823C38.7192 39.5034 45.9868 42.4826 46.2035 42.5564C46.1705 42.738 45.049 46.6364 42.3726 50.6086C39.9852 54.1042 37.4925 57.5941 33.6998 57.5941C29.9081 57.5941 28.932 55.3526 24.554 55.3526C20.2876 55.3526 18.7706 57.6679 15.3018 57.6679C11.8328 57.6679 9.41236 54.4333 6.62943 50.4611C3.40595 45.7966 0.801514 38.5501 0.801514 31.6725C0.801514 20.6411 7.85082 14.7905 14.7887 14.7905C18.475 14.7905 21.548 17.2533 23.8625 17.2533C26.0654 17.2533 29.5006 14.643 33.6946 14.643C35.2845 14.643 40.9952 14.7905 44.7539 20.2722ZM31.7033 9.97281C33.4377 7.87888 34.6655 4.97348 34.6655 2.06808C34.6655 1.66519 34.6314 1.25662 34.5592 0.92749C31.7374 1.03531 28.3798 2.83983 26.3554 5.22884C24.7659 7.06741 23.2824 9.97281 23.2824 12.9179C23.2824 13.3605 23.355 13.8032 23.3884 13.945C23.5669 13.9791 23.8568 14.0188 24.1468 14.0188C26.6788 14.0188 29.8637 12.2937 31.7033 9.97281Z" fill="#333333"/>
</svg>
