<svg width="141" height="54" viewBox="0 0 141 54" fill="none" xmlns="http://www.w3.org/2000/svg">
<path d="M133.179 27.1124C133.179 23.7243 130.356 20.9011 126.967 20.9011C123.579 20.9011 120.755 23.7243 120.755 27.1124C120.755 28.8064 120.755 39.7234 120.755 39.7234H113.791C113.791 39.7234 113.791 30.6886 113.791 27.1124C113.791 19.7717 119.627 13.9368 126.967 13.9368C134.308 13.9368 140.143 19.7717 140.143 27.1124C140.143 30.8769 140.143 39.7234 140.143 39.7234H133.366C133.179 39.7234 133.179 28.8064 133.179 27.1124Z" fill="#333333"/>
<path d="M84.4287 27.1124C84.4287 19.7717 90.2632 13.9368 97.6041 13.9368C104.945 13.9368 110.781 19.7717 110.781 27.1124C110.781 34.4531 104.945 40.2881 97.6041 40.2881C90.452 40.2881 84.4287 34.4531 84.4287 27.1124ZM97.6041 33.3238C101.18 33.3238 104.004 30.5004 104.004 26.9242C104.004 23.3479 101.18 20.5246 97.6041 20.5246C94.0281 20.5246 91.2052 23.3479 91.2052 26.9242C91.393 30.5004 94.2159 33.512 97.6041 33.3238C97.6041 33.512 97.6041 33.512 97.6041 33.3238Z" fill="#333333"/>
<path d="M68.2413 22.4067C67.3002 21.6538 67.4885 20.5244 69.1824 20.148C72.194 19.5834 75.3938 20.148 78.0287 21.4656L81.4169 16.9482C78.7818 15.066 75.582 13.9366 72.3822 13.9366C72.3822 13.9366 64.8533 12.9955 61.6534 18.8304C60.1477 22.0302 61.277 25.7947 64.2886 27.677C67.4885 29.7474 73.3234 30.5004 75.0174 31.4414C76.7111 32.3826 75.9585 33.8883 73.8881 34.2648C70.3117 34.6413 66.7355 33.7001 63.9121 31.8179L60.5242 36.3353C63.3474 38.4057 66.7355 39.9115 70.1235 40.2879C70.1235 40.2879 77.2765 41.6056 81.2291 36.5235C83.4876 33.5119 83.1111 29.1827 80.0994 26.924C79.7228 26.5476 79.1584 26.3593 78.7818 26.1712C75.2056 24.2889 69.9353 23.536 68.2413 22.4067Z" fill="#333333"/>
<path d="M35.6785 44.9936C37.749 46.3112 40.0077 47.2523 42.2664 47.4405C49.7954 47.6288 50.3599 39.7234 50.3599 37.8411C48.666 39.3469 46.4073 40.288 44.1486 40.288C36.996 40.288 31.1611 34.6413 30.9729 27.4888V27.3006C30.9729 23.7243 30.9729 14.3131 30.9729 14.3131H37.9372C37.9372 14.3131 37.9372 25.6066 37.9372 27.3006C37.9372 30.6886 40.7606 33.5119 44.1486 33.5119C47.5367 33.5119 50.3599 30.6886 50.3599 27.3006C50.3599 25.7948 50.3599 14.3131 50.3599 14.3131H57.3242V27.3006C57.3242 38.7822 57.8889 50.4521 46.7837 53.2755C41.7017 54.4048 36.2432 53.0873 32.1022 49.6992L35.6785 44.9936Z" fill="#333333"/>
<path d="M27.3968 0.949219H20.4325V13.7484H14.0329C6.69212 13.7484 0.857178 19.5834 0.857178 26.924C0.857178 34.2648 6.69212 40.0998 14.0329 40.0998C21.3736 40.0998 27.2085 34.2648 27.2085 26.924C27.2085 23.3478 27.2085 13.7484 27.2085 13.7484L27.3968 0.949219ZM20.4325 27.1123C20.4325 30.5004 17.6091 33.3237 14.0329 33.3237C10.6448 33.3237 7.82146 30.5004 7.82146 26.924C7.82146 23.5361 10.6448 20.7127 14.0329 20.7127H20.2442L20.4325 27.1123Z" fill="#333333"/>
</svg>
