<svg width="36" height="37" viewBox="0 0 36 37" fill="none" xmlns="http://www.w3.org/2000/svg">
<g clip-path="url(#clip0_2_235)">
<g clip-path="url(#clip1_2_235)">
<g clip-path="url(#clip2_2_235)">
<g clip-path="url(#clip3_2_235)">
<path d="M18 36.0344C8.0604 36.0344 0 27.974 0 18.0344C0 8.09482 8.0604 0.0344238 18 0.0344238C27.9396 0.0344238 36 8.09482 36 18.0344C36 27.974 27.9396 36.0344 18 36.0344Z" fill="#3B579D"/>
<path d="M22.68 36.0344V22.0916H27.36L28.062 16.6592H22.68V13.1888C22.68 11.6156 23.1156 10.5428 25.3728 10.5428H28.2492V5.6864C27.7524 5.6216 26.0424 5.474 24.0552 5.474C19.908 5.474 17.0676 8.0048 17.0676 12.656V16.6628H12.3768V22.0952H17.0676V36.0344H22.68Z" fill="white"/>
</g>
</g>
</g>
</g>
<defs>
<clipPath id="clip0_2_235">
<rect width="36" height="36" fill="white" transform="translate(0 0.0344238)"/>
</clipPath>
<clipPath id="clip1_2_235">
<rect width="36" height="36" fill="white" transform="translate(0 0.0344238)"/>
</clipPath>
<clipPath id="clip2_2_235">
<rect width="36" height="36" fill="white" transform="translate(0 0.0344238)"/>
</clipPath>
<clipPath id="clip3_2_235">
<rect width="36" height="36" fill="white" transform="translate(0 0.0344238)"/>
</clipPath>
</defs>
</svg>
