<svg width="68" height="70" viewBox="0 0 68 70" fill="none" xmlns="http://www.w3.org/2000/svg">
<path fill-rule="evenodd" clip-rule="evenodd" d="M67.8917 35.4039C67.8917 32.9516 67.6717 30.5937 67.2629 28.3302H34.6917V41.7077H53.3037C52.5021 46.0306 50.0657 49.6934 46.403 52.1453V60.8226H57.5796C64.119 54.802 67.8917 45.9362 67.8917 35.4039Z" fill="#4285F4"/>
<path fill-rule="evenodd" clip-rule="evenodd" d="M34.6913 69.2007C44.0288 69.2007 51.857 66.1038 57.5792 60.8222L46.4022 52.1449C43.3056 54.2199 39.3441 55.4459 34.6913 55.4459C25.6837 55.4459 18.0596 49.3623 15.3401 41.1882H3.78613V50.1484C9.47668 61.451 21.1721 69.2007 34.6913 69.2007Z" fill="#34A853"/>
<path fill-rule="evenodd" clip-rule="evenodd" d="M15.3407 41.1883C14.649 39.1133 14.256 36.8969 14.256 34.6175C14.256 32.3384 14.649 30.1216 15.3407 28.0466V19.0865H3.7867C1.44444 23.7553 0.108276 29.0371 0.108276 34.6175C0.108276 40.1982 1.44444 45.4801 3.7867 50.1489L15.3407 41.1883Z" fill="#FBBC05"/>
<path fill-rule="evenodd" clip-rule="evenodd" d="M34.6913 13.7891C39.7688 13.7891 44.3272 15.5341 47.9114 18.9609L57.8306 9.04183C51.8415 3.46132 44.0128 0.0344238 34.6913 0.0344238C21.1721 0.0344238 9.47668 7.78424 3.78613 19.0867L15.3401 28.0469C18.0596 19.8727 25.6837 13.7891 34.6913 13.7891Z" fill="#EA4335"/>
</svg>
