<svg version="1.1" id="Layer_1" xmlns="http://www.w3.org/2000/svg" xmlns:xlink="http://www.w3.org/1999/xlink" x="0px" y="0px"
	 width="100%" viewBox="0 0 236 139" enable-background="new 0 0 236 139" xml:space="preserve">
<path fill="#000000" opacity="1.000000" stroke="none" 
	d="
M188.000000,140.000000 
	C125.770119,140.000000 63.540234,140.000000 1.000000,140.000000 
	C1.000000,114.646614 1.000000,89.291969 1.468657,63.468658 
	C12.763788,63.000000 23.605652,63.338226 34.409763,62.846695 
	C39.269474,62.625603 44.202602,61.164165 48.833096,59.511105 
	C54.131329,57.619659 55.688931,52.611187 57.229717,47.602348 
	C57.229717,52.685547 57.229717,57.768742 57.229717,62.741032 
	C73.727386,62.741032 89.822876,62.741032 106.000076,62.741032 
	C106.000076,60.485859 106.000076,58.489510 106.000076,55.949547 
	C108.315109,57.368282 110.387291,58.527431 112.344048,59.856514 
	C120.848206,65.632790 137.995209,67.302025 148.141815,60.126869 
	C158.550476,52.766415 158.329422,36.346241 150.277771,30.960051 
	C146.485550,28.423231 141.986130,26.947165 137.818405,24.966808 
	C135.148193,23.698021 132.498474,22.386089 129.532074,20.944014 
	C133.886963,16.961367 137.365463,17.047928 144.062027,21.532349 
	C147.152451,17.974913 150.450287,14.178695 154.247055,9.808169 
	C154.247055,12.994186 154.247055,15.406420 154.247055,18.187313 
	C159.654434,18.187313 164.736038,18.187313 170.187103,18.187313 
	C170.187103,33.322449 170.187103,48.058739 170.187103,62.710739 
	C176.985794,62.710739 183.389999,62.710739 190.175842,62.710739 
	C190.175842,47.688526 190.175842,32.951893 190.175842,17.828474 
	C195.638611,17.828474 200.719482,17.828474 206.000000,17.828474 
	C206.000000,11.956412 206.000000,6.478206 206.000000,1.000000 
	C216.298706,1.000000 226.597412,1.000000 237.000000,1.000000 
	C237.000000,34.020828 237.000000,67.041756 236.531342,100.530228 
	C221.770264,100.998131 207.477783,100.980980 193.185516,101.026016 
	C191.763504,101.030502 189.824158,100.891823 189.004990,101.705551 
	C183.450531,107.223061 175.714737,111.643311 177.975113,121.547256 
	C178.155380,122.337067 178.118042,123.224319 177.978714,124.031219 
	C177.289749,128.020844 178.804886,130.934891 181.869308,133.486099 
	C184.143967,135.379822 185.972656,137.809219 188.000000,140.000000 
M163.382507,129.000000 
	C164.824631,129.000000 166.266739,129.000000 168.000000,129.000000 
	C168.000000,124.542572 167.705704,120.546059 168.077850,116.612595 
	C168.500275,112.147659 168.778641,107.431213 170.462418,103.382545 
	C172.662643,98.092072 176.222122,93.373749 179.119965,88.364807 
	C182.765854,82.062904 186.334045,75.716042 190.156921,69.000031 
	C183.658524,69.000031 177.985718,68.850281 172.331100,69.104782 
	C170.908401,69.168823 169.032272,70.181427 168.240219,71.351105 
	C164.553070,76.796104 161.173218,82.449188 157.560150,88.224922 
	C153.849762,82.374672 150.360626,76.780441 146.747940,71.267174 
	C146.136353,70.333817 145.000137,69.108978 144.094528,69.099098 
	C131.156509,68.958046 118.216469,69.002838 105.000000,69.002838 
	C105.000000,80.643898 105.013725,91.780014 104.994255,102.916077 
	C104.984375,108.567520 102.981934,110.914505 98.196251,110.999878 
	C93.774017,111.078766 92.002266,108.805397 92.000824,103.031937 
	C91.998009,91.764465 92.000000,80.497002 92.000000,69.281868 
	C84.701897,69.281868 77.961884,69.281868 70.816666,69.281868 
	C70.816666,81.546043 70.816666,93.533218 70.816666,105.669884 
	C69.230812,103.634346 68.116486,101.617706 66.464554,100.250748 
	C64.853874,98.917915 62.693542,98.249306 60.487511,97.145477 
	C69.842514,91.434174 69.485970,77.213043 60.451214,73.034622 
	C56.475971,71.196144 52.105278,69.402924 47.831249,69.180305 
	C37.275726,68.630493 26.672319,69.000000 16.349369,69.000000 
	C16.349369,89.431694 16.349369,109.171967 16.349369,129.000000 
	C28.360004,129.000000 40.025307,129.186798 51.681820,128.946777 
	C63.037155,128.712921 70.402214,124.008888 72.556168,112.023529 
	C77.571068,124.556175 86.560585,130.250885 99.834412,130.101105 
	C112.721458,129.955704 125.300064,117.726128 125.045555,104.560837 
	C124.826065,93.206909 125.000000,81.845383 125.000000,69.667824 
	C130.262512,78.469208 134.994446,86.437431 139.780792,94.372849 
	C144.518661,102.227882 148.798904,110.137688 147.077454,119.905037 
	C146.573929,122.761932 147.000000,125.782654 147.000000,129.000000 
	C152.465164,129.000000 157.434357,129.000000 163.382507,129.000000 
M188.805527,85.036057 
	C188.991669,87.055183 189.177811,89.074318 189.363968,91.093452 
	C189.773788,91.063316 190.183609,91.033188 190.593445,91.003059 
	C190.841217,89.812866 191.089005,88.622673 191.559494,86.362709 
	C191.914886,88.582481 192.099136,89.733292 192.257782,90.724159 
	C194.357697,90.724159 196.117416,90.724159 197.751709,90.724159 
	C197.751709,88.699379 197.751709,86.953590 197.751709,85.882568 
	C194.789993,85.561302 192.215469,85.282028 188.805527,85.036057 
z"/>
<path fill="#FFFFFF" opacity="1.000000" stroke="none" 
	d="
M205.531342,1.000000 
	C206.000000,6.478206 206.000000,11.956412 206.000000,17.828474 
	C200.719482,17.828474 195.638611,17.828474 190.175842,17.828474 
	C190.175842,32.951893 190.175842,47.688526 190.175842,62.710739 
	C183.389999,62.710739 176.985794,62.710739 170.187103,62.710739 
	C170.187103,48.058739 170.187103,33.322449 170.187103,18.187313 
	C164.736038,18.187313 159.654434,18.187313 154.247055,18.187313 
	C154.247055,15.406420 154.247055,12.994186 154.247055,9.808169 
	C150.450287,14.178695 147.152451,17.974913 144.062027,21.532349 
	C137.365463,17.047928 133.886963,16.961367 129.532074,20.944014 
	C132.498474,22.386089 135.148193,23.698021 137.818405,24.966808 
	C141.986130,26.947165 146.485550,28.423231 150.277771,30.960051 
	C158.329422,36.346241 158.550476,52.766415 148.141815,60.126869 
	C137.995209,67.302025 120.848206,65.632790 112.344048,59.856514 
	C110.387291,58.527431 108.315109,57.368282 106.000076,55.949547 
	C106.000076,58.489510 106.000076,60.485859 106.000076,62.741032 
	C89.822876,62.741032 73.727386,62.741032 57.229717,62.741032 
	C57.229717,57.768742 57.229717,52.685547 57.229717,47.602348 
	C55.688931,52.611187 54.131329,57.619659 48.833096,59.511105 
	C44.202602,61.164165 39.269474,62.625603 34.409763,62.846695 
	C23.605652,63.338226 12.763788,63.000000 1.468657,63.000000 
	C1.000000,42.432106 1.000000,21.864216 1.000000,1.000000 
	C10.685551,1.000000 20.374119,1.000000 30.229622,1.365666 
	C32.059483,2.154222 33.699871,2.760925 35.389252,2.968053 
	C42.546055,3.845522 48.556114,6.515227 51.168133,13.767279 
	C53.340725,19.799274 52.239101,25.250025 47.047668,29.523035 
	C46.506500,29.968464 46.259945,30.771828 45.824905,31.495241 
	C51.937107,33.997963 56.100559,37.734325 57.000000,44.455837 
	C57.000000,29.970558 57.000000,15.485279 57.000000,1.000000 
	C73.020897,1.000000 89.041786,1.000000 105.184578,1.382515 
	C105.620468,7.102077 105.934456,12.439122 106.271317,18.164799 
	C96.011124,18.164799 86.603500,18.164799 77.267120,18.164799 
	C77.267120,20.612778 77.267120,22.682060 77.267120,25.124472 
	C85.263603,25.124472 93.000740,25.124472 100.748627,25.124472 
	C100.748627,29.917255 100.748627,34.317467 100.748627,39.091789 
	C92.766174,39.091789 85.027390,39.091789 77.231506,39.091789 
	C77.231506,42.212315 77.231506,44.945919 77.231506,47.996758 
	C86.887032,47.996758 96.317413,47.996758 105.870026,47.996758 
	C105.953568,49.726807 106.021767,51.139187 106.157341,53.946697 
	C110.447624,49.874577 113.970634,46.530716 117.491241,43.189137 
	C126.066872,49.657955 131.505997,49.744446 134.064163,42.807129 
	C130.493011,41.535789 126.881691,40.364197 123.358376,38.970173 
	C117.483643,36.645798 111.650406,34.006943 109.256645,27.560415 
	C105.048431,16.227512 110.790825,8.036687 120.059601,2.979784 
	C120.835495,2.556469 121.359154,1.670839 122.000000,1.000000 
	C129.020950,1.000000 136.041901,1.000000 143.241333,1.307362 
	C146.855911,3.667616 150.291977,5.720507 154.000000,7.935872 
	C154.000000,5.280900 154.000000,3.140450 154.000000,1.000000 
	C171.020889,1.000000 188.041794,1.000000 205.531342,1.000000 
M29.918407,47.999458 
	C31.452551,46.354225 34.227646,44.713295 34.233364,43.062771 
	C34.242203,40.513008 32.012234,38.624882 28.739548,38.949734 
	C26.202997,39.201511 23.621456,39.000027 21.320007,39.000027 
	C21.320007,42.430027 21.320007,45.158981 21.320007,47.999962 
	C24.106346,47.999962 26.574272,47.999962 29.918407,47.999458 
M23.531052,24.999657 
	C24.680670,24.999756 25.995871,25.358513 26.943468,24.921026 
	C28.621078,24.146515 30.075195,22.887907 31.622839,21.831881 
	C30.353449,20.536707 29.297958,18.789610 27.760069,18.061722 
	C25.873487,17.168787 23.583578,17.128002 20.001829,16.435234 
	C21.110617,20.070837 21.861580,22.533171 23.531052,24.999657 
z"/>
<path fill="#FEED00" opacity="1.000000" stroke="none" 
	d="
M188.468658,140.000000 
	C185.972656,137.809219 184.143967,135.379822 181.869308,133.486099 
	C178.804886,130.934891 177.289749,128.020844 177.978714,124.031219 
	C178.118042,123.224319 178.155380,122.337067 177.975113,121.547256 
	C175.714737,111.643311 183.450531,107.223061 189.004990,101.705551 
	C189.824158,100.891823 191.763504,101.030502 193.185516,101.026016 
	C207.477783,100.980980 221.770264,100.998131 236.531342,100.998886 
	C237.000000,113.935028 237.000000,126.870056 237.000000,140.000000 
	C220.979630,140.000000 204.958481,140.000000 188.468658,140.000000 
z"/>
<path fill="#000000" opacity="1.000000" stroke="none" 
	d="
M121.533142,1.000000 
	C121.359154,1.670839 120.835495,2.556469 120.059601,2.979784 
	C110.790825,8.036687 105.048431,16.227512 109.256645,27.560415 
	C111.650406,34.006943 117.483643,36.645798 123.358376,38.970173 
	C126.881691,40.364197 130.493011,41.535789 134.064163,42.807129 
	C131.505997,49.744446 126.066872,49.657955 117.491241,43.189137 
	C113.970634,46.530716 110.447624,49.874577 106.157341,53.946697 
	C106.021767,51.139187 105.953568,49.726807 105.870026,47.996758 
	C96.317413,47.996758 86.887032,47.996758 77.231506,47.996758 
	C77.231506,44.945919 77.231506,42.212315 77.231506,39.091789 
	C85.027390,39.091789 92.766174,39.091789 100.748627,39.091789 
	C100.748627,34.317467 100.748627,29.917255 100.748627,25.124472 
	C93.000740,25.124472 85.263603,25.124472 77.267120,25.124472 
	C77.267120,22.682060 77.267120,20.612778 77.267120,18.164799 
	C86.603500,18.164799 96.011124,18.164799 106.271317,18.164799 
	C105.934456,12.439122 105.620468,7.102077 105.653236,1.382515 
	C111.022095,1.000000 116.044182,1.000000 121.533142,1.000000 
z"/>
<path fill="#000000" opacity="1.000000" stroke="none" 
	d="
M56.531349,1.000000 
	C57.000000,15.485279 57.000000,29.970558 57.000000,44.455837 
	C56.100559,37.734325 51.937107,33.997963 45.824905,31.495241 
	C46.259945,30.771828 46.506500,29.968464 47.047668,29.523035 
	C52.239101,25.250025 53.340725,19.799274 51.168133,13.767279 
	C48.556114,6.515227 42.546055,3.845522 35.389252,2.968053 
	C33.699871,2.760925 32.059483,2.154222 30.698278,1.365666 
	C39.354233,1.000000 47.708466,1.000000 56.531349,1.000000 
z"/>
<path fill="#000000" opacity="1.000000" stroke="none" 
	d="
M153.545898,1.000000 
	C154.000000,3.140450 154.000000,5.280900 154.000000,7.935872 
	C150.291977,5.720507 146.855911,3.667616 143.709915,1.307362 
	C147.030594,1.000000 150.061188,1.000000 153.545898,1.000000 
z"/>
<path fill="#FFFFFF" opacity="1.000000" stroke="none" 
	d="
M162.893036,129.000000 
	C157.434357,129.000000 152.465164,129.000000 147.000000,129.000000 
	C147.000000,125.782654 146.573929,122.761932 147.077454,119.905037 
	C148.798904,110.137688 144.518661,102.227882 139.780792,94.372849 
	C134.994446,86.437431 130.262512,78.469208 125.000000,69.667824 
	C125.000000,81.845383 124.826065,93.206909 125.045555,104.560837 
	C125.300064,117.726128 112.721458,129.955704 99.834412,130.101105 
	C86.560585,130.250885 77.571068,124.556175 72.556168,112.023529 
	C70.402214,124.008888 63.037155,128.712921 51.681820,128.946777 
	C40.025307,129.186798 28.360004,129.000000 16.349369,129.000000 
	C16.349369,109.171967 16.349369,89.431694 16.349369,69.000000 
	C26.672319,69.000000 37.275726,68.630493 47.831249,69.180305 
	C52.105278,69.402924 56.475971,71.196144 60.451214,73.034622 
	C69.485970,77.213043 69.842514,91.434174 60.487511,97.145477 
	C62.693542,98.249306 64.853874,98.917915 66.464554,100.250748 
	C68.116486,101.617706 69.230812,103.634346 70.816666,105.669884 
	C70.816666,93.533218 70.816666,81.546043 70.816666,69.281868 
	C77.961884,69.281868 84.701897,69.281868 92.000000,69.281868 
	C92.000000,80.497002 91.998009,91.764465 92.000824,103.031937 
	C92.002266,108.805397 93.774017,111.078766 98.196251,110.999878 
	C102.981934,110.914505 104.984375,108.567520 104.994255,102.916077 
	C105.013725,91.780014 105.000000,80.643898 105.000000,69.002838 
	C118.216469,69.002838 131.156509,68.958046 144.094528,69.099098 
	C145.000137,69.108978 146.136353,70.333817 146.747940,71.267174 
	C150.360626,76.780441 153.849762,82.374672 157.560150,88.224922 
	C161.173218,82.449188 164.553070,76.796104 168.240219,71.351105 
	C169.032272,70.181427 170.908401,69.168823 172.331100,69.104782 
	C177.985718,68.850281 183.658524,69.000031 190.156921,69.000031 
	C186.334045,75.716042 182.765854,82.062904 179.119965,88.364807 
	C176.222122,93.373749 172.662643,98.092072 170.462418,103.382545 
	C168.778641,107.431213 168.500275,112.147659 168.077850,116.612595 
	C167.705704,120.546059 168.000000,124.542572 168.000000,129.000000 
	C166.266739,129.000000 164.824631,129.000000 162.893036,129.000000 
M43.168747,105.000000 
	C40.900738,105.000000 38.632729,105.000000 36.346985,105.000000 
	C36.346985,108.591766 36.346985,111.767006 36.346985,115.230873 
	C39.471176,114.975037 42.444431,115.300064 44.928936,114.348701 
	C46.925591,113.584137 48.330341,111.273811 49.997734,109.649376 
	C48.017406,108.099594 46.037083,106.549820 43.168747,105.000000 
M43.854382,90.987770 
	C44.773335,89.385269 45.692287,87.782776 46.611240,86.180275 
	C43.257256,85.192230 39.903267,84.204178 36.275063,83.135345 
	C36.275063,86.646278 36.275063,88.725014 36.275063,90.999191 
	C38.694054,90.999191 40.839626,90.999191 43.854382,90.987770 
z"/>
<path fill="#FFFFFF" opacity="1.000000" stroke="none" 
	d="
M189.223236,85.019409 
	C192.215469,85.282028 194.789993,85.561302 197.751709,85.882568 
	C197.751709,86.953590 197.751709,88.699379 197.751709,90.724159 
	C196.117416,90.724159 194.357697,90.724159 192.257782,90.724159 
	C192.099136,89.733292 191.914886,88.582481 191.559494,86.362709 
	C191.089005,88.622673 190.841217,89.812866 190.593445,91.003059 
	C190.183609,91.033188 189.773788,91.063316 189.363968,91.093452 
	C189.177811,89.074318 188.991669,87.055183 189.223236,85.019409 
z"/>
<path fill="#000000" opacity="1.000000" stroke="none" 
	d="
M29.480301,47.999710 
	C26.574272,47.999962 24.106346,47.999962 21.320007,47.999962 
	C21.320007,45.158981 21.320007,42.430027 21.320007,39.000027 
	C23.621456,39.000027 26.202997,39.201511 28.739548,38.949734 
	C32.012234,38.624882 34.242203,40.513008 34.233364,43.062771 
	C34.227646,44.713295 31.452551,46.354225 29.480301,47.999710 
z"/>
<path fill="#000000" opacity="1.000000" stroke="none" 
	d="
M23.071796,24.997581 
	C21.861580,22.533171 21.110617,20.070837 20.001829,16.435234 
	C23.583578,17.128002 25.873487,17.168787 27.760069,18.061722 
	C29.297958,18.789610 30.353449,20.536707 31.622839,21.831882 
	C30.075195,22.887907 28.621078,24.146515 26.943468,24.921026 
	C25.995871,25.358513 24.680670,24.999756 23.071796,24.997581 
z"/>
<path fill="#000000" opacity="1.000000" stroke="none" 
	d="
M43.612751,105.000015 
	C46.037083,106.549820 48.017406,108.099594 49.997734,109.649376 
	C48.330341,111.273811 46.925591,113.584137 44.928936,114.348701 
	C42.444431,115.300064 39.471176,114.975037 36.346985,115.230873 
	C36.346985,111.767006 36.346985,108.591766 36.346985,105.000000 
	C38.632729,105.000000 40.900738,105.000000 43.612751,105.000015 
z"/>
<path fill="#000000" opacity="1.000000" stroke="none" 
	d="
M43.419792,90.993484 
	C40.839626,90.999191 38.694054,90.999191 36.275063,90.999191 
	C36.275063,88.725014 36.275063,86.646278 36.275063,83.135345 
	C39.903267,84.204178 43.257256,85.192230 46.611237,86.180283 
	C45.692287,87.782776 44.773335,89.385269 43.419792,90.993484 
z"/>
</svg>