<svg width="32" height="33" viewBox="0 0 32 33" fill="none" xmlns="http://www.w3.org/2000/svg">
<g clip-path="url(#clip0_1_103)">
<path d="M16 0.799988C7.17761 0.799988 0 7.9776 0 16.8C0 25.6224 7.17761 32.8 16 32.8C24.8224 32.8 32 25.6224 32 16.8C32 7.9776 24.8225 0.799988 16 0.799988ZM16 31.0702C12.0803 31.0702 8.52498 29.4815 5.94332 26.9145C4.91239 25.8894 4.03724 24.708 3.35583 23.4096C2.31809 21.4324 1.72975 19.1837 1.72975 16.8C1.72975 8.93134 8.13135 2.52974 16 2.52974C19.7323 2.52974 23.1338 3.97063 25.6794 6.3246C26.9992 7.54494 28.089 9.01048 28.8749 10.6486C29.7689 12.5123 30.2702 14.5987 30.2702 16.8C30.2702 24.6686 23.8686 31.0702 16 31.0702Z" fill="#00A1EA"/>
<path d="M10.5309 13.1677C11.4607 13.1677 12.2171 13.8809 12.2171 14.8539H13.9469C13.9469 12.908 12.4145 11.438 10.5309 11.438C8.64734 11.438 7.11499 12.908 7.11499 14.8539H8.84474C8.84474 13.8809 9.60129 13.1677 10.5309 13.1677Z" fill="#00A1EA"/>
<path d="M21.4689 13.1677C22.3987 13.1677 23.1551 13.8809 23.1551 14.8539H24.8849C24.8849 12.908 23.3525 11.438 21.4689 11.438C19.5853 11.438 18.053 12.908 18.053 14.8539H19.7827C19.7827 13.8809 20.5392 13.1677 21.4689 13.1677Z" fill="#00A1EA"/>
<path d="M15.9694 25.6647C19.3158 25.6647 22.5229 23.9533 24.3591 21.1119L22.9063 20.173C21.2202 22.7823 18.135 24.2385 15.0475 23.8821C12.6407 23.6045 10.4151 22.2179 9.09365 20.173L7.64087 21.1119C9.23981 23.5864 11.9345 25.2642 14.8492 25.6004C15.2233 25.6436 15.597 25.6647 15.9694 25.6647Z" fill="#00A1EA"/>
</g>
<defs>
<clipPath id="clip0_1_103">
<rect width="32" height="32" fill="white" transform="translate(0 0.799988)"/>
</clipPath>
</defs>
</svg>
