<svg width="19" height="16" viewBox="0 0 19 16" fill="none" xmlns="http://www.w3.org/2000/svg">
<g clip-path="url(#clip0_1_46)">
<path d="M16.229 6.21876L14.429 6.21882V5.77344C14.429 5.52747 14.2276 5.32813 13.979 5.32813C13.7305 5.32813 13.529 5.52752 13.529 5.77344V6.21876L11.729 6.2187C11.4805 6.2187 11.279 6.41806 11.279 6.66402C11.279 6.90996 11.4805 7.10961 11.729 7.10961H14.9494C14.7553 7.58531 14.429 8.08629 14.0044 8.55665C13.7828 8.3061 13.5754 8.0451 13.3963 7.78069C13.2979 7.63109 13.0976 7.58929 12.9429 7.6798L12.7495 7.7946C12.5843 7.89202 12.5351 8.10771 12.6441 8.26775C12.841 8.56002 13.0834 8.87307 13.3646 9.1865C13.0834 9.4301 12.781 9.6596 12.4576 9.86142C12.3064 9.95885 12.2537 10.1536 12.3451 10.3104L12.4576 10.5018C12.5525 10.6687 12.7669 10.721 12.9287 10.62C13.3084 10.3834 13.6669 10.1121 13.9975 9.82317C14.3102 10.1085 14.655 10.3798 15.0277 10.6164C15.1894 10.7208 15.4073 10.6686 15.5024 10.5016L15.6149 10.3067C15.7063 10.1536 15.6571 9.95885 15.5095 9.86142C15.2141 9.67347 14.9188 9.4439 14.6376 9.19347C15.2422 8.52882 15.6889 7.79823 15.8998 7.1091H16.229C16.4776 7.1091 16.679 6.90957 16.679 6.66351C16.679 6.41745 16.4765 6.21876 16.229 6.21876ZM16.679 2.63121H2.279C1.28479 2.63121 0.479004 3.4286 0.479004 4.41246V11.5374C0.479004 12.5213 1.28479 13.3187 2.279 13.3187H16.679C17.6732 13.3187 18.479 12.5213 18.479 11.5374V4.41246C18.479 3.45365 17.6719 2.63121 16.679 2.63121ZM9.029 12.4531H2.279C1.78288 12.4531 1.379 12.0534 1.379 11.5625V4.43751C1.379 3.94655 1.78288 3.54688 2.279 3.54688H9.029V12.4531ZM17.579 11.5625C17.579 12.0534 17.1751 12.4531 16.679 12.4531H9.929V3.54688H16.679C17.1751 3.54688 17.579 3.94655 17.579 4.43751V11.5625ZM2.52763 10.6245C2.75089 10.7337 3.02066 10.6463 3.13148 10.4254L3.68244 9.33597H6.27557L6.82625 10.4259C6.90557 10.5828 7.06588 10.6719 7.229 10.6719C7.29668 10.6719 7.36524 10.6566 7.43027 10.6249C7.65263 10.5149 7.74218 10.2475 7.63153 10.0273L5.38153 5.57422C5.22859 5.27253 4.72931 5.27253 4.57659 5.57422L2.32659 10.0273C2.21573 10.2488 2.30544 10.516 2.52763 10.6245ZM4.979 6.76983L5.82557 8.44535H4.13244L4.979 6.76983Z" fill="white"/>
</g>
<defs>
<clipPath id="clip0_1_46">
<rect width="18" height="14.25" fill="white" transform="translate(0.479004 0.875)"/>
</clipPath>
</defs>
</svg>
