<svg width="20" height="17" viewBox="0 0 20 17" fill="none" xmlns="http://www.w3.org/2000/svg">
<g clip-path="url(#clip0_1_35)">
<g clip-path="url(#clip1_1_35)">
<path d="M18.6886 3C18.9387 3 19.1886 2.79166 19.1886 2.5V1.16667C19.1886 0.916668 18.9387 0.666668 18.6886 0.666668H1.02197C0.730306 0.666668 0.521973 0.916668 0.521973 1.16667V2.5C0.521973 2.79166 0.730306 3 1.02197 3H18.6886ZM18.6886 9.66667C18.9387 9.66667 19.1886 9.45831 19.1886 9.16667V7.83333C19.1886 7.58333 18.9387 7.33333 18.6886 7.33333H1.02197C0.730306 7.33333 0.521973 7.58333 0.521973 7.83333V9.16667C0.521973 9.45831 0.730306 9.66667 1.02197 9.66667H18.6886ZM18.6886 16.3333C18.9387 16.3333 19.1886 16.125 19.1886 15.8333V14.5C19.1886 14.25 18.9387 14 18.6886 14H1.02197C0.730306 14 0.521973 14.25 0.521973 14.5V15.8333C0.521973 16.125 0.730306 16.3333 1.02197 16.3333H18.6886Z" fill="white"/>
</g>
</g>
<defs>
<clipPath id="clip0_1_35">
<rect width="19" height="16" fill="white" transform="translate(0.355347 0.5)"/>
</clipPath>
<clipPath id="clip1_1_35">
<rect width="18.6667" height="16" fill="white" transform="translate(0.521973 0.5)"/>
</clipPath>
</defs>
</svg>
