<svg width="32" height="33" viewBox="0 0 32 33" fill="none" xmlns="http://www.w3.org/2000/svg">
<g clip-path="url(#clip0_1_97)">
<path d="M24.3889 16.9676L23.6005 8.39155C23.565 8.00555 23.2413 7.71018 22.8537 7.71018H18.2739V5.96774C18.2739 3.25605 16.0678 1.04999 13.3562 1.04999C10.6445 1.04999 8.43842 3.25605 8.43842 5.96774V7.71011H3.85854C3.47092 7.71011 3.14717 8.00549 3.11167 8.39149L1.48229 26.1189C1.41929 26.8049 1.63135 27.4364 2.09554 27.9452C2.55985 28.4541 3.16929 28.7231 3.8581 28.7231H15.8789C17.2609 31.0144 19.774 32.55 22.6394 32.55C26.9894 32.55 30.5285 29.0109 30.5285 24.6609C30.5285 20.9119 27.8998 17.7656 24.3889 16.9676ZM9.93842 5.96774C9.93842 4.08318 11.4716 2.54999 13.3562 2.54999C15.2407 2.54999 16.774 4.08318 16.774 5.96774V7.71011H9.93842V5.96774ZM3.8581 27.2231C3.59142 27.2231 3.38348 27.1313 3.20373 26.9342C3.02398 26.7372 2.95167 26.5217 2.97604 26.2562L4.54279 9.21018H8.43842V10.5776C8.43842 10.9918 8.77423 11.3276 9.18842 11.3276C9.6026 11.3276 9.93842 10.9918 9.93842 10.5776V9.21018H16.774V10.5776C16.774 10.9918 17.1098 11.3276 17.524 11.3276C17.9382 11.3276 18.274 10.9918 18.274 10.5776V9.21018H22.1695L22.8649 16.7752C22.79 16.7731 22.7149 16.7718 22.6394 16.7718C18.2894 16.7718 14.7503 20.3109 14.7503 24.6609C14.7503 25.5574 14.9009 26.4194 15.1777 27.2231H3.8581ZM22.6394 31.05C19.1164 31.05 16.2502 28.1839 16.2502 24.6609C16.2502 21.1379 19.1164 18.2717 22.6394 18.2717C26.1623 18.2717 29.0285 21.1379 29.0285 24.6609C29.0285 28.1839 26.1623 31.05 22.6394 31.05ZM26.1639 22.3088C26.4504 22.608 26.44 23.0827 26.1409 23.3692L22.3111 27.036C22.1662 27.1747 21.9794 27.2442 21.7924 27.2442C21.6106 27.2442 21.4287 27.1785 21.2852 27.0466L19.1493 25.0851C18.8442 24.8049 18.824 24.3305 19.1042 24.0254C19.3844 23.7202 19.8588 23.7001 20.1639 23.9803L21.7818 25.4661L25.1035 22.2857C25.4027 21.9993 25.8774 22.0096 26.1639 22.3088Z" fill="#00A1EA"/>
</g>
<defs>
<clipPath id="clip0_1_97">
<rect width="32" height="32" fill="white" transform="translate(0 0.799988)"/>
</clipPath>
</defs>
</svg>
