<svg class="block" xmlns="http://www.w3.org/2000/svg" width="140" height="25" xmlns:v="https://vecta.io/nano"><path d="M3.1 24.9c-.7 0-1.4-.1-2.1 0-.4 0-.9-.4-.9-.8 0-.2.1-.5.4-.5.1 0 .3-.1.5-.1h1.5c.2 0 .2 0 .2-.2.1-.7.1-1.5.1-2.2-.1-1 0-2 0-3v-2.8-1.5-1.7c-.1-.4 0-.9 0-1.4l-.1-2.6c0-.1-.1-.1-.1-.1-.5.1-.9 0-1.3-.1-.2 0-.3-.1-.5-.1s-.3-.1-.4-.3-.1-.5 0-.7c0-.1.1-.1.2-.2.3-.1.6-.2.9-.2H2h.3.6.9c.2 0 .3 0 .4.2.2.2.3.4.3.6v.5.1h.1c.3-.2.7-.4 1-.7.2-.2.4-.4.7-.5 0 0 .1 0 .1-.1.6-.5 1.3-.5 2-.6s1.4-.1 2.1.1c.2 0 .4.1.6.1.4.1.8.1 1.2.3l1.2.7c.6.4 1.2.9 1.6 1.6.1.2.2.5.3.7 0 .3.1.6.2.9s.1.7.2 1.1v.5 1.4c0 .6-.2 1.2-.5 1.8-.2.5-.5.9-.9 1.4-.3.3-.6.6-1 .9-.4.2-.7.5-1.1.8-.2.2-.5.3-.9.4-.1 0-.3 0-.5.1-.3.1-.5.1-.8.1h-.3c-.2.1-.4 0-.7 0l-1-.2c-.6-.1-1.1-.3-1.7-.6l-1.5-.9-.3-.3c-.1 0-.2-.1-.2-.2h-.1v.5c.1.9 0 1.8 0 2.7v.7 2.4.5h.5.5 1.3.6c.3 0 .5.3.7.5.2.3 0 .7-.2.8s-.5.1-.8.1H5.1h-.6c-.6.1-1 .1-1.4.1h0zm11.2-13v-.7c-.1-.6-.4-1.1-.8-1.5l-.8-.9c-.1-.2-.3-.3-.5-.4-.4-.2-.9-.4-1.4-.5-1-.2-1.8-.4-2.7-.2-.3 0-.6.1-.8.2-.3.2-.6.4-.8.6-.1 0-.2.1-.3.2-.2.3-.5.4-.7.7-.4.4-.7.9-1.1 1.4-.1.1-.2.3-.2.5v.8c-.1.4 0 .9 0 1.3v.1c.3.6.6 1.1 1 1.7.1.1.3.2.4.4.4.4.8.7 1.2.9.2.1.4.3.7.4.5.2 1 .3 1.6.3h0c.5 0 1.1 0 1.6-.2.4-.1.9-.3 1.3-.5.8-.5 1.2-1.4 1.6-2.1h0l.5-1.6c.2-.3.2-.7.2-.9zm52.5 1v2.8l.1 1.3v.3c0 .1 0 .1.1.1h.2c.3 0 .5 0 .8.1h.5c.3 0 .4.1.5.4v.2c0 .3 0 .5-.4.6H68h-.6c-.4.1-.7 0-1.1 0h-.6c-.3 0-.3 0-.4-.3v-.8c0-.1 0-.2-.2-.1l-1.5.8c-.2.1-.4.1-.5.2-.2.1-.5.1-.7.3-.4.2-.9.3-1.4.3l-1 .3h-.2l-2.1-.4c-.8-.2-1.5-.6-2-1.3a4.67 4.67 0 0 1-.5-1c-.2-.3-.2-.6-.2-.9 0-.4.1-.9.1-1.3.1-.4.3-.8.5-1.2.2-.3.5-.6.8-.9.4-.2.7-.6 1.1-.8s.8-.4 1.3-.5h1.3 1.2.1 1.8c.2 0 .5.1.7.1l1.2.3c.1 0 .2 0 .2-.2 0-.8-.1-1.6-.5-2.3-.1-.2-.1-.5-.3-.7-.1-.2-.3-.4-.5-.5-.4-.2-.8-.4-1.2-.5-.2 0-.4 0-.6-.1-.6 0-1.1 0-1.7.1l-1.6.3c-.2 0-.4.1-.6.2l-1.1.3c-.3.1-.6 0-.8-.3-.1-.2 0-.5.1-.7.2-.2.5-.4.9-.4l1-.2c.3 0 .6-.1.9-.2h.2c.5 0 1-.2 1.6-.3h.2H63c.3 0 .6.2.9.2.2 0 .4.1.6.2.3.1.5.3.8.5.3.3.5.6.8.9.4.6.6 1.3.7 2v.8c.1.8.2 1.6 0 2.3h0 0 0zm-7.1 5c.4 0 .8 0 1.2-.1.2 0 .4-.1.6-.2l1.4-.6c.4-.1.7-.3 1.1-.5.2-.1.5-.3.7-.4s.4-.2.6-.4c.1-.1.1-.2.1-.3V13c0-.2-.1-.3-.3-.4-.3-.1-.6-.1-.9-.2l-.7-.1H63c-.2 0-.5 0-.7.1-.8.1-1.6.1-2.5.1-.4 0-.8.1-1.1.3s-.6.4-.9.7c-.7.7-1.1 1.5-1.3 2.5 0 .3 0 .6.2.8.2.3.6.6 1 .7.7.3 1.5.3 2 .4h0zm-27.2-.3c.3 0 .6 0 .9.2.1 0 .2.1.2.2.2.4.1.8-.4.9-.3.1-.7.1-1 .1h-1.1-.3c-.2 0-.2-.1-.2-.3v-.8c0-.1-.1-.1-.1-.1l-.6.3c-.4.3-.8.5-1.3.7-.6.3-1.3.4-2 .6H26h-.9c-.4 0-.8 0-1.2-.1-.5-.1-1-.2-1.4-.6a3.47 3.47 0 0 1-1.2-1.9c-.3-.3-.3-.6-.3-.9v-.3c-.1-.5-.1-1-.1-1.5s0-1.1.1-1.6v-1.1-1.9-.4c0-.4-.1-.8-.1-1.2 0-.1-.1-.1-.2-.1h-.3c-.4 0-.8 0-1.1-.3 0 0-.1 0-.2-.1-.3-.2-.4-.5-.1-.8.1-.1.3-.2.5-.2.9-.2 1.7-.2 2.6 0h.4c.2 0 .4.2.3.5-.1.5-.1 1.1-.2 1.6v1.4 3 2.3c0 .4 0 .7.1 1.1 0 .2.1.5.2.7s.2.4.4.5c.3.1.5.3.8.4.2.1.6.1.8.1h.9c.3 0 .5-.1.8-.2.8-.2 1.5-.6 2.2-1.1.5-.3.9-.8 1.2-1.3.1-.2.2-.4.2-.6v-3.7c0-.5 0-1-.1-1.5 0-.4-.1-.9 0-1.3 0-.2 0-.3.1-.5 0-.2 0-.2-.2-.3h-.9c-.3 0-.6 0-.9.1-.3 0-.7-.1-.9-.4-.2-.2-.2-.4 0-.6.2-.3.5-.4.9-.4h2.5.7c.3 0 .4.1.4.4v.3c-.1.5-.1 1-.1 1.5v1.2l.1 2.2v1.8l.1 2.4v1.3c0 .2 0 .2.3.2.1.1.2.1.3.1h0zm8.8-3.6l.1-1.9-.1-2.6v-1-.7c0-.1 0-.2-.2-.2h-1.7c-.4 0-.7 0-1-.3 0 0-.1-.1-.1-.2-.1-.2 0-.2.1-.4.3-.2.7-.3 1.1-.4h2.1.6.2c.2 0 .3.1.3.4l-.1 1.4v.6s0 .1.1 0l.9-.6 1.1-.9c.5-.4 1.1-.9 1.7-1.2.4.1.8 0 1.2 0h.9c.3 0 .7 0 1 .3.1.1.3.1.4.2.2.1.4.3.5.5s.2.5.4.7.2.4.2.6c0 .1-.1.2-.2.2-.2 0-.4 0-.6-.1-.1-.1-.2-.2-.3-.2-.4-.3-.9-.6-1.5-.6h-.3c-.7.2-1.3.6-1.9.9l-.7.4c-.4.2-.8.4-1.1.7l-.9.7-.7.7c-.1.1-.1.2-.1.3v.9 1.3 1.3.9 1.7c0 .1 0 .2.2.2h2.5.5 1.4.2c.4-.1.7 0 1.1.2.2.1.4.4.4.7a.55.55 0 0 1-.3.5c-.1 0-.3.1-.5.1h-.7-1.1-.5c-.4.1-.9 0-1.4 0h-1.1-1-.3-1.2-2.1c-.4 0-.7-.2-1-.4-.2-.2-.2-.5.1-.6l.6-.3c.1-.1.3-.1.5 0 .4 0 .8.1 1.2 0h.6.1c.3 0 .4 0 .3-.4-.1-.8-.1-1.6 0-2.4l.1-1h0 0zM96 3.4c.3.5 1 .7 1.5.7h.4a.76.76 0 0 0 .4-.2c.1-.1.6-.4.6-1v-.2-.8c0-.3-.1-.9-.6-1.3S97.1.1 96.4.4h0c-.9.5-.8 2.4-.4 3-.1 0-.1 0 0 0h0 0 0zm24.4 13.4h-.5V16l.1-2.1v-1.5-3-1.1c0-.3 0-.7-.1-1v-.4-.2-.2c0-.5 0-.9.1-1.4v-.5-.2-.3-1.9-.8V1c0-.5-.5-.8-.9-.8h-.4-.1-.9-1.1c-.2 0-.4.1-.6.2h0c-.4.2-.5.5-.6.8v.1.5c0 .1.2.3.4.5.3.2.7.2 1 .3h.3.2.6v.3.9V5v.5.3.8 1.1l-1.1-1h0c-.2-.2-.5-.4-.9-.5 0 0-.1 0-.1-.1-.1 0-.2-.1-.3-.1s-.3 0-.4-.1c-.2 0-.5-.1-.7-.2-.3-.1-.7-.1-1.2-.1-.4 0-.8 0-1.3.1-.4 0-.8.2-1.2.3h-.2c-.2.1-.4.2-.7.3-.5.3-.9.6-1.4 1-.3.3-.8.7-1 1.3l-.4.4-.5 1.3-.3 1c-.1 1.2-.1 2.2.2 3.1l.3 1c.2.8.6 1.4 1 1.9.1.1.1.1.1.2.2.2.4.5.8.7l.9.5c.2.1.3.1.5.2l.5.1.6.1c.5.2 1.1.2 1.7.2h.8c.6 0 1.2-.2 1.8-.4h.1l.3-.1c.2-.1.3-.1.5-.2.5-.1.9-.3 1.3-.6v.1c-.1.4.1.7.4.8h.2c.3.1.6.1 1 .1.3 0 .6 0 .9.1h.4l1.1-.1c.4 0 .7-.3.8-.7s0-.8-.3-1.1c-.5-.3-1-.5-1.7-.4h0 0 0zm-2.6-3.6c0 .2 0 .5-.2.8-.1.1-.2.3-.3.5a.76.76 0 0 1-.2.4c-.1.1-.1.2-.2.3 0 0-.1.1-.2.1 0 0-.1.1-.2.1-.1.1-.2.1-.2.2l-.3.3c-.2.2-.5.3-.9.5-.6.2-1.1.4-1.7.4h-1.3c-.3 0-.5-.1-.8-.2-.4-.1-.8-.3-1.2-.5l-.5-.3c-.1 0-.1-.1-.2-.2s-.2-.1-.3-.2-.2-.2-.3-.5l-.1-.5c0-.1 0-.2-.1-.3-.2-.6-.2-1.3-.1-2v-.3-.3c.1-.5.2-1 .4-1.5 0-.2.2-.3.4-.5.6-.6 1.1-1 1.7-1.3h.1l.8-.3h.1.6.3c.4.1.8.2 1.2.4l.8.3c.2.1.4.2.7.5.1.2.3.4.5.6l.5.6h0c.3.3.5.6.7 1 .1.4.2.7.2 1v.6c.3.1.3.2.3.3h0zm21 3.8h-.7-.6-.1v-.1-.1-.1-.4-.4-.5-.7-.3-1.6-.5-.7-.6-.2c0-.7 0-1.3-.2-1.9-.1-.5-.3-1-.5-1.4-.1-.2-.3-.5-.5-.6l-.2-.4c-.5-.4-1-.8-1.7-1.1h-.1l-.5-.1-.7-.1h-.4-.2-1.1 0-.3-.5-.5-.3c-.2 0-.4 0-.6.1l-1 .3-.7.4c-.3.1-.6.3-.8.4h-.1c-.2.1-.4.4-.4.8s.3.7.7.9c.1 0 .3.1.4.1.2 0 .4 0 .5-.1h.1.1l.3-.1 1.3-.3h.2c.2 0 .4-.1.6 0h.9c.3-.1.7-.1 1.1 0 .8.1 1.5.4 2 .8.2.2.3.3.3.6v1 .1.5c-.2 0-.4-.1-.7-.1h-.1c-.5-.1-1.1-.1-1.7-.1h-1.4-1-.4c-.1 0-.2 0-.4.1l-.6.1c-.5 0-.8.3-1.1.4l-.9.6h0c-.1.1-.3.2-.4.4l-.7.9c-.4.6-.6 1.3-.6 2v1.1c0 .3.1.7.2 1 .2.4.4.7.7 1l.1.1.2.2h0c.4.4.9.6 1.4.8.3.1.7.2 1.2.3h1 .4 0 .2c.1 0 .2 0 .4-.1.1 0 .2-.1.4-.1l1-.2h.1c.4-.1.8-.2 1.2-.4.2-.1.4-.1.6-.2.1 0 .2 0 .3-.1.1 0 .2-.1.3-.1s.1 0 .2-.1c0 .2.1.4.2.5.2.2.5.3.8.3.6-.1 1.4-.1 2.2 0h.4.2c.4 0 .7-.3.9-.5.1-.1.1-.3.1-.4.6-.6.1-1.1-.5-1.1h0zm-9.1.1h0-.6c-.3 0-.6-.1-1-.3-.1-.1-.3-.2-.4-.3-.2-.2-.4-.6-.6-1v-.4l.5-1.1.1-.1.7-.6c.1-.1.2-.1.3-.1l.6-.1c.1 0 .2 0 .4-.1.5-.1 1-.1 1.5-.1h.8c.4-.1 1 0 1.4 0l1 .3c.1 0 .2 0 .3.1v1.4.7h0c-.2.2-.4.3-.8.5-.6.3-1.2.5-1.9.8l-.9.3c-.2.1-.4.1-.6.1h-.8 0 0 0zm.4 2.1h0zM88.1 6c-.3-.2-.7-.4-1.1-.4h-.6-.7-.3-.3 0-.6-.3-.5-.5-.6-.6c-.4.1-.8.4-.8 1 0 .4.2.9.7 1 .3.1.6.1.9.1h.8.2c0 .1 0 .1-.1.2-.1.2-.2.5-.3.7 0 .1-.1.2-.1.4a.76.76 0 0 1-.2.4c0 .1-.1.2-.1.3a.76.76 0 0 1-.2.4c-.1.2-.2.4-.3.7-.1.4-.2.7-.4 1.1l-.1.4v.2c0 .2-.1.4-.2.6-.1.3-.3.5-.3.8 0 .1 0 .1-.1.2l-.1.2-.4 1.1c-.1.2-.1.3-.2.5 0 .1-.1.3-.2.5l-.1-.3c-.3-.5-.5-1-.7-1.5 0-.1 0-.1-.1-.2 0-.1-.1-.2-.2-.3-.1-.2-.2-.5-.3-.7l-.1-.2-.5-1.4c-.2-.7-.5-1.3-.8-1.9l-.2-.3-.3-.5c-.1-.1-.2-.3-.2-.5l-.3-.6h.4c.4 0 .7 0 1-.1h.3c.1 0 .2 0 .2-.1h0c.6-.2.7-.7.8-1 0-.2 0-.5-.1-.7-.3-.5-.8-.7-1.4-.6h-.3-.3-.8-.2-.6-.9-1.5c-.2 0-.4 0-.6.1-.4.1-.7.4-.8.7s0 .7.1 1c.1.2.4.4.7.4h.5 0 .1.1.3c.3.4.5.9.7 1.3l.9 2.2.5 1.2c.1.2.1.4.2.6 0 .1.1.3.2.5l.5 1.3.4.9.8 1.8s0 .1.1.2a.76.76 0 0 0 .2.4c.1.2.4.8 1.2.8h0 1.8c.4 0 .7-.2.9-.6.1-.3.2-.6.4-.9 0-.1.1-.2.2-.4.1-.1.2-.3.2-.5.1-.3.3-.6.4-.9a.76.76 0 0 1 .2-.4v-.1c0-.1.1-.2.1-.3 0-.2.1-.4.2-.7l.3-1h0l.8-1.6c.4-.7.7-1.3.9-2l.1-.3c-.2-.2 0-.6.1-1.1V8h0 .4.2.7.1.2c.5-.1.7-.5.7-.6.3-.8.1-1.2-.2-1.4h0zm-9.2 12.8h0z"></path><path d="M102.2 17h-.7-.7-.7-.9-.7-.1v-.4-1.3V14v-.6-.7c0-.7.1-1.4 0-2.2v-.1-.5-1.4-.6V7v-.4c.1-.4 0-.7-.3-.9-.1 0-.3-.1-.4-.1h0-1-.1-.6-.5-.4 0-.6-.8-.2c-.5 0-1 .2-1.4.6-.2.2-.3.5-.3.8s.2.5.5.7c.4.2.9.3 1.6.2h.2.1 1.5 0v.3c0 .4.1.8 0 1.3v.2.3.6 1.5l-.1 1.4v.4 3h-.2l-1.1.1H94h-1.1-.1-.7-.3c-.5 0-.8.3-1 .5s-.3.5-.2.8c.1.2.3.8 1 .9.5.1.9.1 1.3.1h.1 1.2 0 .9.8.9.7.6.9.8 1.3.3.7c.4 0 .8 0 1.1-.1.3 0 .7-.2.9-.5.2-.2.2-.6 0-.9-.5-.5-1.1-.9-1.9-.8h0 0 0zM3 24.9c-.7 0-1.4-.1-2.1 0-.4.1-.9-.3-.9-.8 0-.2.1-.5.4-.5.1 0 .3-.1.5-.1h1.5c.2 0 .2 0 .2-.2.1-.7.1-1.5.1-2.2-.1-1 0-2 0-3v-2.8-1.5-1.7c-.1-.4 0-.9 0-1.4l-.1-2.6c0-.1-.1-.1-.1-.1-.5.1-.9 0-1.3-.1-.2-.1-.4-.1-.5-.1-.2 0-.3-.1-.4-.3s-.1-.5 0-.7c0-.1.1-.1.2-.2.3-.1.6-.2.9-.2h.5.3.6.9c.2 0 .3 0 .4.2.2.2.3.4.3.6v.5.1h.1c.3-.2.7-.4 1-.7a3.04 3.04 0 0 1 .7-.5s.1 0 .1-.1c.6-.5 1.3-.5 2-.6s1.4-.1 2.1.1c.2 0 .4.1.6.1.4.1.8.1 1.2.3l1.2.7c.6.5 1.2 1 1.6 1.7.1.2.2.5.3.7 0 .3.1.6.2.9s.1.7.2 1.1v.5 1.4c0 .6-.2 1.2-.5 1.8-.2.5-.5.9-.9 1.4-.3.3-.6.6-1 .9-.4.2-.7.5-1.1.8-.2.2-.5.3-.9.4-.1 0-.3 0-.5.1-.3.1-.5.1-.8.1h-.3c-.2.1-.4 0-.7 0l-1-.2c-.6-.1-1.1-.3-1.7-.6l-1.5-.9-.3-.3c-.1 0-.2-.1-.2-.2h-.1v.5c.1.9 0 1.8 0 2.7v.7V23v.5h.5.5 1.3.6c.3 0 .5.3.7.5.2.3 0 .7-.2.8s-.5.1-.8.1H5h-.6H3h0zm11.2-13v-.7c-.1-.6-.4-1.1-.8-1.5l-.8-.9c-.1-.2-.3-.3-.5-.4-.4-.2-.9-.4-1.4-.5-1-.2-1.8-.4-2.7-.2-.3 0-.6.1-.8.2-.3.2-.6.4-.8.6-.1 0-.2.1-.3.2-.2.3-.5.4-.7.7-.4.4-.7.9-1.1 1.4-.1.1-.2.3-.2.5v.8c-.1.4-.1.9-.1 1.3v.1c.3.6.6 1.1 1 1.7.1.1.3.2.4.4.3.4.8.6 1.2.9.2.1.4.3.7.4.5.2 1 .3 1.6.3h0c.5 0 1.1 0 1.6-.2.4-.1.9-.3 1.3-.5.8-.5 1.2-1.4 1.6-2.1h0l.5-1.6c.3-.3.3-.7.3-.9zm52.5 1v2.8l.1 1.3v.3c0 .1 0 .1.1.1h.2c.3 0 .5 0 .8.1h.5c.3 0 .4.1.5.4v.2c0 .3 0 .5-.4.6h-.6-.6c-.4.1-.7 0-1.1 0h-.6c-.3 0-.3 0-.4-.3v-.8c0-.1 0-.2-.2-.1l-1.5.8c-.2.1-.4.1-.5.2-.2.1-.5.1-.7.3-.4.2-.9.3-1.4.3l-1.1.1h-.2l-2-.2c-.8-.2-1.5-.6-2-1.3a4.67 4.67 0 0 1-.5-1c-.1-.2-.2-.5-.1-.8 0-.4.1-.9.1-1.3.1-.4.3-.8.5-1.2.2-.3.5-.6.8-.9.4-.2.7-.6 1.1-.8s.8-.4 1.3-.5h1.3 1.2.1 1.8c.2 0 .5.1.7.1l1.2.3c.1 0 .2 0 .2-.2 0-.8-.1-1.6-.5-2.3-.1-.2-.1-.5-.3-.7-.1-.2-.3-.4-.5-.5-.4-.2-.8-.4-1.2-.5-.2 0-.4 0-.6-.1-.6 0-1.1 0-1.7.1l-1.5.3c-.2 0-.4.1-.6.2l-1.1.3c-.3.1-.6 0-.8-.3-.1-.2 0-.5.1-.7.2-.2.5-.4.9-.4l1-.2c.3 0 .6-.1.9-.2h.2c.5 0 1-.2 1.6-.3h.2 1.7c.3 0 .6.2.9.2.2 0 .4.1.6.2.3.1.5.3.8.5.3.3.5.6.8.9.4.6.6 1.3.7 2v.8c-.1.7 0 1.5-.2 2.2h0 0 0zm-7.1 5c.4 0 .8 0 1.2-.1.2 0 .4-.1.6-.2l1.4-.6c.4-.1.7-.3 1.1-.5.2-.1.5-.3.7-.4s.4-.2.6-.4c.1-.1.1-.2.1-.3V13c0-.2-.1-.3-.3-.4-.3-.1-.6-.1-.9-.2l-.7-.1h-.5c-.2 0-.5 0-.7.1-.8.1-1.6.1-2.5.1-.4 0-.8.1-1.1.3s-.6.4-.9.7c-.7.7-1.1 1.5-1.3 2.5 0 .3 0 .6.2.8.2.3.6.6 1 .7.8.3 1.5.3 2 .4h0zm-27.2-.3c.3 0 .6 0 .9.2.1 0 .2.1.2.2.2.4.1.8-.4.9-.3.1-.7.1-1 .1H31h-.3c-.2 0-.2-.1-.2-.3v-.8c0-.1-.1-.1-.1-.1l-.6.3c-.4.3-.8.5-1.3.7-.6.3-1.3.4-2 .6h-.6-.9c-.4 0-.8 0-1.2-.1-.5-.1-1-.2-1.4-.6a3.47 3.47 0 0 1-1.2-1.9c-.1-.2-.1-.5-.1-.8v-.3c-.1-.5-.1-1-.1-1.5s0-1.1.1-1.6v-1.1-1.9-.5c0-.4-.1-.8-.1-1.2 0-.1-.1-.1-.2-.1h-.3c-.4 0-.8 0-1.1-.3 0 0-.1 0-.2-.1-.3-.2-.4-.5-.1-.8.1-.1.3-.2.5-.2.9-.2 1.7-.2 2.6 0h.4c.2 0 .4.2.3.5-.1.5-.1 1.1-.2 1.6v1.4 3 2.3c0 .4 0 .7.1 1.1 0 .2.1.5.2.7s.2.4.4.5c.3.1.5.3.8.4.2.1.6.1.8.1h1c.3 0 .5-.1.8-.2.8-.2 1.5-.6 2.2-1.1.5-.3.9-.8 1.2-1.3.1-.2.2-.4.2-.6v-3.7c0-.5 0-1-.1-1.5 0-.4-.1-.9 0-1.3 0-.2 0-.3.1-.5 0-.2 0-.2-.2-.3h-.9c-.3 0-.6 0-.9.1-.3 0-.7-.1-.9-.4-.2-.2-.2-.4 0-.6.2-.3.5-.4.9-.4h2.5.7c.3 0 .4.1.4.4v.3c-.1.5-.1 1-.1 1.5v1.2l.1 2.2v1.8l-.2 2.4v1.3c0 .2 0 .2.3.2.1.1.2.1.3.1h0zm8.8-3.6l.1-1.9-.1-2.6v-1-.7c0-.1 0-.2-.2-.2h-1.7c-.4 0-.7 0-1-.3 0 0-.1-.1-.1-.2-.1-.2 0-.2.1-.4.3-.2.7-.3 1.1-.4h2.1.6.2c.2 0 .3.1.3.4l-.1 1.4v.6s0 .1.1 0l.9-.6 1.1-.9c.5-.4 1.1-.9 1.7-1.2.4.1.8 0 1.2 0h.9c.3 0 .7 0 1 .3.1.1.3.1.4.2.2.1.4.3.5.5s.2.5.4.7a.9.9 0 0 1 .1.5c0 .1-.1.2-.2.2-.2 0-.4 0-.6-.1-.1-.1-.2-.2-.3-.2-.4-.3-.9-.6-1.5-.6h-.3c-.7.2-1.3.6-1.9.9l-.7.4c-.4.2-.8.4-1.1.7l-.9.7-.7.7c-.1.1-.1.2-.1.3v.9 1.3 1.3.9 1.7c0 .1 0 .2.2.2h2.5.5 1.4.2c.4-.1.7 0 1.1.2.2.1.4.4.4.7a.55.55 0 0 1-.3.5c-.1 0-.3.1-.5.1h-.7-1.1-.5c-.4.1-.9 0-1.4 0h-1.1-1-.3-1.2-2.1c-.4 0-.7-.2-1-.4-.2-.2-.2-.5.1-.6l.6-.3c.1-.1.3-.1.5 0 .4 0 .8.1 1.2 0h.6.1c.3 0 .4 0 .3-.4-.1-.8-.1-1.6 0-2.4l.2-.9h0 0zM95.9 3.4c.3.5 1 .7 1.5.7h.4a.76.76 0 0 0 .4-.2c.1-.1.6-.4.6-1v-.2-.8c0-.3-.1-.9-.6-1.3S97 .1 96.3.4h0c-.9.5-.8 2.4-.4 3-.1 0-.1 0 0 0h0 0 0z"></path><path d="M120.3 16.8h-.5V16l.1-2.1v-1.5-3-1.1c0-.3 0-.7-.1-1v-.4-.2-.2c0-.5 0-.9.1-1.4v-.5-.2-.3-1.9-.8V1c0-.5-.5-.8-.9-.8h-.4-.1-.9-1.1c-.2 0-.4.1-.6.2h0c-.4.2-.5.5-.6.8v.1.5c0 .1.2.3.4.5.3.2.7.2 1 .3h.3.2.6v.3.9V5v.5.3.8 1.1l-1.1-1h0c-.5-.4-.7-.7-1.1-.7 0 0-.1 0-.1-.1-.1 0-.2-.1-.3-.1s-.3 0-.4-.1c-.2 0-.5-.1-.7-.2-.3-.1-.7-.1-1.2-.1-.4 0-.8 0-1.3.1-.4 0-.8.2-1.2.3h-.2c-.2.1-.4.2-.7.3-.5.3-.9.6-1.4 1-.3.3-.8.7-1 1.3l-.2.6-.5 1.3-.3 1c-.1 1.2-.1 2.2.2 3.1l.3 1c.2.8.6 1.4 1 1.9 0 0 .1.1.1.2.2.2.4.5.8.7l.9.5c.2.1.3.1.5.2l.5.1.6.1c.5.2 1.1.2 1.7.2h.8c.6 0 1.2-.2 1.8-.4h.1l.3-.1c.2-.1.3-.1.5-.2.5-.1.9-.3 1.3-.6v.1c-.1.4.1.7.4.8h.2c.3.1.6.1 1 .1.3 0 .6 0 .9.1h.4l1.1-.1c.4 0 .7-.3.8-.7s0-.8-.3-1.1c-.5-.3-1-.5-1.7-.4h0 0 0zm-2.6-3.6c0 .2 0 .5-.2.8-.1.1-.2.3-.3.5a.76.76 0 0 1-.2.4c0 .1-.1.2-.2.3s-.1.1-.2.1c0 0-.1.1-.2.1-.1.1-.2.1-.2.2l-.3.3c-.2.2-.5.3-.9.5-.6.2-1.1.4-1.7.4H112c-.3 0-.5-.1-.8-.2-.4-.1-.8-.3-1.2-.5l-.5-.3c-.1 0-.1-.1-.2-.2s-.2-.1-.3-.2-.2-.2-.3-.5l-.1-.5c0-.1 0-.2-.1-.3-.2-.6-.2-1.3-.1-2v-.3-.3c.1-.5.2-1 .4-1.5 0-.2.2-.3.4-.5.6-.6 1.1-1 1.7-1.3h.1l.8-.3h.1.6.3c.4.1.8.2 1.2.4l.8.3c.2.1.4.2.7.5.1.2.3.4.5.6l.5.6h0c.3.3.5.6.7 1 .1.4.2.7.2 1v.6c.3.1.3.2.3.3h0zm21 3.8h-.7-.6-.1v-.1-.1-.1-.4-.4-.5-.7-.3-1.6-.5-.7-.6-.2c0-.7 0-1.3-.2-1.9-.1-.5-.3-1-.5-1.4-.1-.2-.3-.5-.5-.6l-.2-.2c-.5-.4-1-.8-1.7-1.1h-.1l-.5-.1-.6-.1h-.4-.2-1.1 0-.3-.5-.5-.3c-.2 0-.4 0-.6.1l-1 .3-.7.2c-.3.1-.6.3-.8.4h-.1c-.2.1-.4.4-.4.8s.3.7.7.9c.1 0 .3.1.4.1.2 0 .4 0 .5-.1h.1.1l.3-.1 1.3-.3h.2c.2 0 .4-.1.6 0h.9c.3-.1.7-.1 1.1 0 .8.1 1.5.4 2 .8.2.2.3.3.3.6v1 .1.5c-.2 0-.4-.1-.7-.1h-.1c-.5-.1-1.1-.1-1.7-.1h-1.4-1-.4c-.1 0-.2 0-.4.1l-.6.1c-.5 0-.8.3-1.1.4l-.9.6h0c-.1.1-.3.2-.4.4l-.7.9c-.4.6-.6 1.3-.6 2v1.1c0 .3.1.7.2 1 .2.4.4.7.7 1l.1.1.2.2h0c.4.4.9.6 1.4.8.3.1.7.2 1.2.3h1 .4 0 .2c.1 0 .2 0 .4-.1.1 0 .2-.1.4-.1l1-.2h.1c.4-.1.8-.2 1.2-.4.2-.1.4-.1.6-.2.1 0 .2 0 .3-.1.1 0 .2-.1.3-.1s.1 0 .2-.1c0 .2.1.4.2.5.2.2.5.3.8.3.6-.1 1.4-.1 2.2 0h.4.2c.4 0 .7-.3.9-.5.1-.1.1-.3.1-.4.5-.6 0-1.1-.6-1.1h0zm-9.1.1h0-.6c-.3 0-.6-.1-1-.3-.1-.1-.3-.2-.4-.3-.2-.2-.4-.6-.6-1v-.4l.5-1.1.1-.1.7-.6c.1-.1.2-.1.3-.1l.6-.1c.1 0 .2 0 .4-.1.5-.1 1-.1 1.5-.1h.8c.4-.1 1 0 1.4 0l1 .3c.1 0 .2 0 .3.1v1.4.7h0c-.2.2-.4.3-.8.5-.6.3-1.2.5-1.9.8l-.9.3c-.2.1-.4.1-.6.1h-.8 0 0 0zm.5 2.1h0zM88 6c-.3-.2-.7-.4-1.1-.4h-.6-.7-.3-.3 0-.6-.4-.5-.5-.6-.6c-.4.1-.8.4-.8 1 0 .4.2.9.7 1 .3.1.6.1.9.1h.8.2c0 .1 0 .1-.1.2-.1.2-.2.5-.3.7-.1.4-.2.5-.2.6a.76.76 0 0 1-.2.4c0 .1-.1.2-.1.3a.76.76 0 0 1-.2.4c-.1.2-.2.4-.3.7-.1.4-.2.7-.4 1.1l-.1.4v.2c0 .2-.1.4-.2.6-.1.3-.3.5-.3.8 0 .1 0 .1-.1.2l-.1.2-.4 1.1c-.1.2-.1.3-.2.5 0 .1-.1.3-.2.5l-.1-.3c-.3-.5-.5-1-.7-1.5 0-.1 0-.1-.1-.2 0-.1-.1-.2-.2-.3-.1-.2-.2-.5-.3-.7l-.1-.2-.5-1.4c-.2-.7-.5-1.3-.8-1.9l-.2-.3-.3-.5c-.1-.1-.2-.3-.2-.5l-.3-.6h.4c.4 0 .7 0 1-.1h.3c.1 0 .2 0 .2-.1h0c.6-.2.7-.7.8-1 0-.2 0-.5-.1-.7-.3-.5-.8-.7-1.4-.6h-.3-.3-.8-.2-.6-.9H73c-.2 0-.4 0-.6.1-1 .2-1.3.5-1.4.8s0 .7.1 1c.1.2.4.4.7.4h.5 0 .1.1.5c.3.4.5.9.7 1.3l.9 2.2.5 1.2c.1.2.1.4.2.6 0 .1.1.3.2.5l.5 1.3.4.9.8 1.8s0 .1.1.2a.76.76 0 0 0 .2.4c.1.2.4.8 1.2.8h0 1.8c.4 0 .7-.2.9-.6.1-.3.2-.6.4-.9 0-.1.1-.2.2-.4.1-.1.2-.3.2-.5.1-.3.3-.6.4-.9a.76.76 0 0 1 .2-.4v-.1c0-.1.1-.2.1-.3 0-.2.1-.4.2-.7l.3-1h0l.8-1.6c.4-.7.7-1.3.9-2l.1-.3c.1-.4.3-.8.4-1.2v-.1h0 .4.2.7.1.2c.5-.1.7-.5.7-.6.6-1 .4-1.4.1-1.6h0zm-9.2 12.8h0zm23.3-1.8h-.7-.7-.7-.9-.7 0v-.4-1.3V14v-.6-.7c0-.7.1-1.4 0-2.2v-.1-.5-1.4-.6V7v-.4c.1-.4 0-.7-.3-.9-.1 0-.3-.1-.4-.1h0-1 0-.7-.5-.4 0-.6-.8-.2c-.5 0-1 .2-1.4.6-.2.2-.3.5-.3.8s.2.5.5.7c.4.2.9.3 1.6.2h.2.1 1.5 0v.3c0 .4.1.8 0 1.3v.2.3.6 1.5l-.1 1.4v.4 3h-.2l-1.1.1H94h-1.1-.1-.7-.3c-.5 0-.8.3-1 .5s-.3.5-.2.8c.1.2.3.8 1 .9.5.1.9.1 1.3.1h.1 1.2 0 .9.8.9.7.6.9.8 1.3.3.7c.4 0 .8 0 1.1-.1.3 0 .7-.2.9-.5.2-.2.2-.6 0-.9-.6-.5-1.2-.9-2-.8h0 0 0z"></path></svg>