<svg viewBox="0 0 223 32" fill="none" xmlns="http://www.w3.org/2000/svg">
<g clip-path="url(#clip0_235_2232)">
<path d="M181.875 0L168.979 19.3232V32H163.915V19.3232L151.02 0H156.928L165.608 12.6854L166.408 14.1096L167.231 12.7025L175.967 0H181.875Z" fill="currentColor"></path>
<path d="M220.272 17.6118C218.219 15.8933 215.759 15.1043 211.301 13.675L210.156 13.3115C209.936 13.2412 209.682 13.1669 209.4 13.0843C207.164 12.4316 203.456 11.3451 203.586 8.37494C203.693 5.96658 205.46 4.59096 208.832 4.27703C211.314 4.0498 213.666 4.58684 215.133 5.71873C215.953 6.38338 216.456 7.32011 216.533 8.32537H222.051C222.047 6.35757 221.158 4.47997 219.596 3.14102C217.204 1.02181 213.384 -0.118324 209.105 0.00973592C204.306 0.154319 201.985 1.5795 201.028 2.41807C199.143 4.00149 198.094 6.26187 198.152 8.61454C198.152 14.3979 203.644 16.1412 206.927 17.1739C207.276 17.2855 207.602 17.3846 207.888 17.4837L209.802 18.1282C214.167 19.5699 217.052 20.52 217.052 23.201C217.042 24.5121 216.322 25.7315 215.133 26.4479C214.105 27.142 212.41 27.555 210.598 27.555C207.468 27.555 203.309 27.047 202.781 22.6764H197.303C197.3 25.3563 198.699 27.8723 201.059 29.4304C203.403 31.0499 206.725 31.9629 210.419 32H210.598C213.966 32 217.342 31.0705 219.203 29.6372C221.224 28.0796 222.289 25.8737 222.369 23.0812C222.432 20.8753 221.725 19.0287 220.272 17.6118Z" fill="currentColor"></path>
<path fill-rule="evenodd" clip-rule="evenodd" d="M26.0005 9.83299C26.0005 13.9073 23.9793 17.041 20.4288 18.5117L27.5963 32H22.1041L15.4783 19.3838H5.40638V31.9872H0.597656V0H15.6534C21.9374 0 26.0005 3.84768 26.0005 9.83299ZM5.40638 14.8521H15.6534C19.0954 14.8521 21.15 12.9753 21.15 9.81163C21.15 6.60521 19.0954 4.68135 15.6534 4.68135H5.40638V14.8521Z" fill="currentColor"></path>
<path fill-rule="evenodd" clip-rule="evenodd" d="M37.2383 15.9587C37.2383 6.71208 44.14 0 53.6518 0C63.1374 0 70.0222 6.66254 70.0222 15.9587C70.0222 25.2549 63.1632 32 53.6518 32C44.14 32 37.2383 25.2054 37.2383 15.9587ZM42.3673 15.9587C42.3673 22.7533 47.0072 27.4964 53.6518 27.4964C60.1845 27.4964 64.906 22.5965 64.906 15.9587C64.906 9.32094 60.1845 4.5036 53.6518 4.5036C47.0072 4.5036 42.3673 9.16407 42.3673 15.9587Z" fill="currentColor"></path>
<path d="M77.7363 4.66611H88.8272V32H93.6441V4.66611H104.735V0H77.7363V4.66611Z" fill="currentColor"></path>
<path d="M134.586 13.6434H119.246V0H114.379V32H119.246V18.3566H134.586V32H139.449V0H134.586V13.6434Z" fill="currentColor"></path>
<path d="M193.445 0H187.66L188.207 7.52941H192.904L193.445 0Z" fill="currentColor"></path>
<path d="M181.875 0L168.979 19.3232V32H163.915V19.3232L151.02 0H156.928L165.608 12.6854L166.408 14.1096L167.231 12.7025L175.967 0H181.875Z" fill="currentColor"></path>
<path d="M220.272 17.6118C218.219 15.8933 215.759 15.1043 211.301 13.675L210.156 13.3115C209.936 13.2412 209.682 13.1669 209.4 13.0843C207.164 12.4316 203.456 11.3451 203.586 8.37494C203.693 5.96658 205.46 4.59096 208.832 4.27703C211.314 4.0498 213.666 4.58684 215.133 5.71873C215.953 6.38338 216.456 7.32011 216.533 8.32537H222.051C222.047 6.35757 221.158 4.47997 219.596 3.14102C217.204 1.02181 213.384 -0.118324 209.105 0.00973592C204.306 0.154319 201.985 1.5795 201.028 2.41807C199.143 4.00149 198.094 6.26187 198.152 8.61454C198.152 14.3979 203.644 16.1412 206.927 17.1739C207.276 17.2855 207.602 17.3846 207.888 17.4837L209.802 18.1282C214.167 19.5699 217.052 20.52 217.052 23.201C217.042 24.5121 216.322 25.7315 215.133 26.4479C214.105 27.142 212.41 27.555 210.598 27.555C207.468 27.555 203.309 27.047 202.781 22.6764H197.303C197.3 25.3563 198.699 27.8723 201.059 29.4304C203.403 31.0499 206.725 31.9629 210.419 32H210.598C213.966 32 217.342 31.0705 219.203 29.6372C221.224 28.0796 222.289 25.8737 222.369 23.0812C222.432 20.8753 221.725 19.0287 220.272 17.6118Z" fill="currentColor"></path>
<path fill-rule="evenodd" clip-rule="evenodd" d="M26.0005 9.83299C26.0005 13.9073 23.9793 17.041 20.4288 18.5117L27.5963 32H22.1041L15.4783 19.3838H5.40638V31.9872H0.597656V0H15.6534C21.9374 0 26.0005 3.84768 26.0005 9.83299ZM5.40638 14.8521H15.6534C19.0954 14.8521 21.15 12.9753 21.15 9.81163C21.15 6.60521 19.0954 4.68135 15.6534 4.68135H5.40638V14.8521Z" fill="currentColor"></path>
<path fill-rule="evenodd" clip-rule="evenodd" d="M37.2383 15.9587C37.2383 6.71208 44.14 0 53.6518 0C63.1374 0 70.0222 6.66254 70.0222 15.9587C70.0222 25.2549 63.1632 32 53.6518 32C44.14 32 37.2383 25.2054 37.2383 15.9587ZM42.3673 15.9587C42.3673 22.7533 47.0072 27.4964 53.6518 27.4964C60.1845 27.4964 64.906 22.5965 64.906 15.9587C64.906 9.32094 60.1845 4.5036 53.6518 4.5036C47.0072 4.5036 42.3673 9.16407 42.3673 15.9587Z" fill="currentColor"></path>
<path d="M77.7363 4.66611H88.8272V32H93.6441V4.66611H104.735V0H77.7363V4.66611Z" fill="currentColor"></path>
<path d="M134.586 13.6434H119.246V0H114.379V32H119.246V18.3566H134.586V32H139.449V0H134.586V13.6434Z" fill="currentColor"></path>
<path d="M193.445 0H187.66L188.207 7.52941H192.904L193.445 0Z" fill="currentColor"></path>
</g>
<defs>
<clipPath id="clip0_235_2232">
<rect width="223" height="32" fill="white"></rect>
</clipPath>
</defs>
</svg>