<svg width="19" height="20" viewBox="0 0 19 20" fill="none" xmlns="http://www.w3.org/2000/svg">
<path d="M18.7108 17.674L15.1956 14.1769C15.7592 13.4641 16.2153 12.6474 16.5638 11.7267C16.9124 10.806 17.0867 9.84825 17.0867 8.85333C17.0867 7.66536 16.8642 6.55165 16.4192 5.51218C15.9742 4.47271 15.3661 3.56689 14.5948 2.79471C13.8236 2.02254 12.9188 1.4137 11.8806 0.968217C10.8423 0.522731 9.7299 0.299987 8.54333 0.299987C7.35675 0.299987 6.24434 0.522731 5.20609 0.968217C4.16784 1.4137 3.26308 2.02254 2.4918 2.79471C1.72053 3.56689 1.11241 4.47271 0.667447 5.51218C0.222482 6.55165 0 7.66536 0 8.85333C0 10.0413 0.222482 11.155 0.667447 12.1945C1.11241 13.2339 1.72053 14.1398 2.4918 14.9119C3.26308 15.6841 4.16784 16.293 5.20609 16.7384C6.24434 17.1839 7.35675 17.4067 8.54333 17.4067C9.55191 17.4067 10.5123 17.2433 11.4245 16.9166C12.3367 16.5899 13.1487 16.1148 13.8607 15.4911L17.3759 19.0104C17.4797 19.1144 17.5947 19.1886 17.7207 19.2332C17.8468 19.2777 17.9543 19.3 18.0433 19.3C18.1323 19.3 18.2399 19.2777 18.3659 19.2332C18.492 19.1886 18.6069 19.1144 18.7108 19.0104C18.9036 18.8174 19 18.5946 19 18.3422C19 18.0897 18.9036 17.867 18.7108 17.674ZM1.91335 8.85333C1.91335 7.91781 2.08392 7.04911 2.42506 6.24723C2.7662 5.43051 3.23712 4.72515 3.83782 4.13117C4.43852 3.53719 5.13934 3.062 5.94028 2.70561C6.75605 2.36407 7.62373 2.19331 8.54333 2.19331C9.47775 2.19331 10.3454 2.36407 11.1464 2.70561C11.9621 3.062 12.6667 3.53719 13.26 4.13117C13.8532 4.72515 14.3279 5.43051 14.6838 6.24723C15.025 7.04911 15.1956 7.91781 15.1956 8.85333C15.1956 9.7443 15.0213 10.5982 14.6727 11.4149C14.3242 12.2316 13.8681 12.9295 13.3044 13.5087C12.6815 14.1175 11.9733 14.5853 11.1797 14.9119C10.3862 15.2386 9.5445 15.402 8.65457 15.402C7.70531 15.4317 6.81538 15.2758 5.98478 14.9342C5.16901 14.6075 4.45706 14.1472 3.84895 13.5532C3.24083 12.9592 2.7662 12.2539 2.42506 11.4372C2.08392 10.6353 1.91335 9.774 1.91335 8.85333Z" fill="black"/>
</svg>
