<svg width="34" height="31" viewBox="0 0 34 31" fill="none" xmlns="http://www.w3.org/2000/svg">
<g clip-path="url(#clip0_1_87)">
<path d="M12.5988 25.1774C19.1061 25.1774 24.3813 19.9022 24.3813 13.395C24.3813 6.88772 19.1061 1.61255 12.5988 1.61255C6.09158 1.61255 0.816406 6.88772 0.816406 13.395C0.816406 19.9022 6.09158 25.1774 12.5988 25.1774Z" stroke="#00A1EA" stroke-width="1.62516" stroke-linecap="round" stroke-linejoin="round"/>
<path d="M16.028 20.4048C14.9933 20.9141 13.8286 21.1958 12.5989 21.1958" stroke="#00A1EA" stroke-width="1.62516" stroke-linecap="round" stroke-linejoin="round"/>
<path d="M12.5989 5.59418C16.9056 5.59418 20.3997 9.08828 20.3997 13.395C20.3997 14.8684 19.9934 16.2444 19.2837 17.4199" stroke="#00A1EA" stroke-width="1.62516" stroke-linecap="round" stroke-linejoin="round"/>
<path d="M22.8699 19.3214L32.4638 26.5913L30.6382 29.2674L21.0443 21.9975" stroke="#00A1EA" stroke-width="1.62516" stroke-linecap="round" stroke-linejoin="round"/>
</g>
<defs>
<clipPath id="clip0_1_87">
<rect width="33.2725" height="29.28" fill="white" transform="translate(0.00378418 0.799988)"/>
</clipPath>
</defs>
</svg>
