<svg width="21" height="16" viewBox="0 0 21 16" fill="none" xmlns="http://www.w3.org/2000/svg">
<g clip-path="url(#clip0_1_56)">
<path d="M0.479004 0.5H20.479V15.5H0.479004V0.5Z" fill="#012169"/>
<path d="M2.82275 0.5L10.4478 6.15625L18.0415 0.5H20.479V2.4375L12.979 8.03125L20.479 13.5938V15.5H17.979L10.479 9.90625L3.01025 15.5H0.479004V13.625L7.94775 8.0625L0.479004 2.5V0.5H2.82275Z" fill="white"/>
<path d="M13.729 9.28125L20.479 14.25V15.5L12.0103 9.28125H13.729ZM7.979 9.90625L8.1665 11L2.1665 15.5H0.479004L7.979 9.90625ZM20.479 0.5V0.59375L12.6978 6.46875L12.7603 5.09375L18.9165 0.5H20.479ZM0.479004 0.5L7.94775 6H6.07275L0.479004 1.8125V0.5Z" fill="#C8102E"/>
<path d="M8.01025 0.5V15.5H13.0103V0.5H8.01025ZM0.479004 5.5V10.5H20.479V5.5H0.479004Z" fill="white"/>
<path d="M0.479004 6.53125V9.53125H20.479V6.53125H0.479004ZM9.01025 0.5V15.5H12.0103V0.5H9.01025Z" fill="#C8102E"/>
</g>
<defs>
<clipPath id="clip0_1_56">
<rect width="20" height="15" fill="white" transform="translate(0.479004 0.5)"/>
</clipPath>
</defs>
</svg>
