<svg width="36" height="37" viewBox="0 0 36 37" fill="none" xmlns="http://www.w3.org/2000/svg">
<g clip-path="url(#clip0_2_269)">
<g clip-path="url(#clip1_2_269)">
<g clip-path="url(#clip2_2_269)">
<g clip-path="url(#clip3_2_269)">
<path d="M18 36.0344C8.0604 36.0344 0 27.974 0 18.0344C0 8.09482 8.0604 0.0344238 18 0.0344238C27.9396 0.0344238 36 8.09482 36 18.0344C36 27.974 27.9396 36.0344 18 36.0344Z" fill="url(#paint0_linear_2_269)"/>
<path d="M18 7.96168C21.2796 7.96168 21.6684 7.97248 22.9644 8.03368C24.1632 8.08768 24.8148 8.28928 25.2468 8.45848C25.8192 8.68168 26.2296 8.94808 26.658 9.37648C27.0864 9.80488 27.3528 10.2153 27.576 10.7877C27.7452 11.2197 27.9432 11.8713 28.0008 13.0701C28.0584 14.3661 28.0728 14.7549 28.0728 18.0345C28.0728 21.3141 28.062 21.7029 28.0008 22.9989C27.9468 24.1977 27.7452 24.8493 27.576 25.2813C27.3528 25.8537 27.0864 26.2641 26.658 26.6925C26.2296 27.1209 25.8192 27.3873 25.2468 27.6105C24.8148 27.7797 24.1632 27.9777 22.9644 28.0353C21.6684 28.0929 21.2796 28.1073 18 28.1073C14.7204 28.1073 14.3316 28.0965 13.0356 28.0353C11.8368 27.9813 11.1852 27.7797 10.7532 27.6105C10.1808 27.3873 9.77039 27.1209 9.34199 26.6925C8.91359 26.2641 8.64719 25.8537 8.42399 25.2813C8.25479 24.8493 8.05679 24.1977 7.99919 22.9989C7.94159 21.7029 7.92719 21.3141 7.92719 18.0345C7.92719 14.7549 7.93799 14.3661 7.99919 13.0701C8.05319 11.8713 8.25479 11.2197 8.42399 10.7877C8.64719 10.2153 8.91359 9.80488 9.34199 9.37648C9.77039 8.94808 10.1808 8.68168 10.7532 8.45848C11.1852 8.28928 11.8368 8.09128 13.0356 8.03368C14.3316 7.97248 14.7204 7.96168 18 7.96168ZM18 5.74768C14.6628 5.74768 14.2452 5.76208 12.9348 5.82328C11.628 5.88448 10.7352 6.08968 9.95039 6.39568C9.14399 6.70528 8.45639 7.12648 7.77599 7.81048C7.09199 8.49448 6.67439 9.17848 6.35759 9.98848C6.05519 10.7697 5.84639 11.6625 5.78519 12.9729C5.72399 14.2833 5.70959 14.7009 5.70959 18.0381C5.70959 21.3753 5.72399 21.7929 5.78519 23.1033C5.84639 24.4101 6.05159 25.3029 6.35759 26.0877C6.67079 26.8905 7.09199 27.5781 7.77599 28.2585C8.45999 28.9425 9.14399 29.3601 9.95399 29.6769C10.7352 29.9793 11.628 30.1881 12.9384 30.2493C14.2488 30.3105 14.6664 30.3249 18.0036 30.3249C21.3408 30.3249 21.7584 30.3105 23.0688 30.2493C24.3756 30.1881 25.2684 29.9829 26.0532 29.6769C26.856 29.3637 27.5436 28.9425 28.224 28.2585C28.908 27.5745 29.3256 26.8905 29.6424 26.0805C29.9448 25.2993 30.1536 24.4065 30.2148 23.0961C30.276 21.7857 30.2904 21.3681 30.2904 18.0309C30.2904 14.6937 30.276 14.2761 30.2148 12.9657C30.1536 11.6589 29.9484 10.7661 29.6424 9.98128C29.3292 9.17848 28.908 8.49088 28.224 7.81048C27.54 7.12648 26.856 6.70888 26.046 6.39208C25.2648 6.08968 24.372 5.88088 23.0616 5.81968C21.7548 5.76208 21.3372 5.74768 18 5.74768Z" fill="white"/>
<path d="M18 11.7236C14.5152 11.7236 11.6892 14.5496 11.6892 18.0344C11.6892 21.5192 14.5152 24.3452 18 24.3452C21.4848 24.3452 24.3108 21.5192 24.3108 18.0344C24.3108 14.5496 21.4848 11.7236 18 11.7236ZM18 22.1312C15.7392 22.1312 13.9032 20.2988 13.9032 18.0344C13.9032 15.77 15.7392 13.9376 18 13.9376C20.2608 13.9376 22.0968 15.77 22.0968 18.0344C22.0968 20.2988 20.2608 22.1312 18 22.1312Z" fill="white"/>
<path d="M24.5593 12.9513C25.3744 12.9513 26.0353 12.2904 26.0353 11.4753C26.0353 10.6601 25.3744 9.99927 24.5593 9.99927C23.7441 9.99927 23.0833 10.6601 23.0833 11.4753C23.0833 12.2904 23.7441 12.9513 24.5593 12.9513Z" fill="white"/>
</g>
</g>
</g>
</g>
<defs>
<linearGradient id="paint0_linear_2_269" x1="5.27207" y1="30.7623" x2="30.7279" y2="5.3065" gradientUnits="userSpaceOnUse">
<stop stop-color="#FFD521"/>
<stop offset="0.0551048" stop-color="#FFD020"/>
<stop offset="0.1241" stop-color="#FEC01E"/>
<stop offset="0.2004" stop-color="#FCA71B"/>
<stop offset="0.2821" stop-color="#FA8316"/>
<stop offset="0.3681" stop-color="#F85510"/>
<stop offset="0.4563" stop-color="#F51E09"/>
<stop offset="0.5" stop-color="#F30005"/>
<stop offset="0.5035" stop-color="#F20007"/>
<stop offset="0.5966" stop-color="#E1003B"/>
<stop offset="0.6879" stop-color="#D30067"/>
<stop offset="0.7757" stop-color="#C70088"/>
<stop offset="0.8589" stop-color="#BF00A0"/>
<stop offset="0.9357" stop-color="#BB00AF"/>
<stop offset="1" stop-color="#B900B4"/>
</linearGradient>
<clipPath id="clip0_2_269">
<rect width="36" height="36" fill="white" transform="translate(0 0.0344238)"/>
</clipPath>
<clipPath id="clip1_2_269">
<rect width="36" height="36" fill="white" transform="translate(0 0.0344238)"/>
</clipPath>
<clipPath id="clip2_2_269">
<rect width="36" height="36" fill="white" transform="translate(0 0.0344238)"/>
</clipPath>
<clipPath id="clip3_2_269">
<rect width="36" height="36" fill="white" transform="translate(0 0.0344238)"/>
</clipPath>
</defs>
</svg>
