<svg width="57" height="58" viewBox="0 0 57 58" fill="none" xmlns="http://www.w3.org/2000/svg">
<mask id="mask0_2_153" style="mask-type:luminance" maskUnits="userSpaceOnUse" x="0" y="0" width="57" height="58">
<path d="M56.873 0.92749H0.126953V57.6735H56.873V0.92749Z" fill="white"/>
</mask>
<g mask="url(#mask0_2_153)">
<path d="M0.512695 1.30707V57.2953H56.5016L56.5006 1.30707H0.512695Z" fill="white"/>
<path fill-rule="evenodd" clip-rule="evenodd" d="M0.512695 57.2953V1.30707H56.5006V57.2953H0.512695ZM51.638 29.949C52.1281 28.497 52.6831 26.3236 52.775 24.5792C52.8441 23.2633 52.6677 21.4204 51.4265 20.1108C50.436 19.0644 48.9235 18.5364 46.9291 18.5364C44.4106 18.5364 42.3812 19.4255 40.8965 21.1837L40.5044 21.6458L40.2444 21.0992C40.0319 20.6536 39.8802 20.4711 39.6481 20.2101C38.6339 19.062 36.9315 18.48 34.5904 18.4803C32.4455 18.4803 30.508 19.1232 29.1342 20.2905L28.7863 20.5859L28.5468 20.196C27.898 19.1414 26.2808 18.4589 24.4279 18.4589C21.7621 18.4595 19.0724 18.8215 17.4498 21.4371L16.7773 22.5166L16.7247 21.2451C16.6838 20.2615 16.5939 19.8529 16.1364 19.3687C15.6332 18.835 14.7865 18.5755 13.5482 18.5764C11.7298 18.5764 10.3632 19.3693 9.3692 21.0021C7.83923 23.4459 4.14124 31.4843 4.22296 35.3049C4.2765 37.7843 5.93101 39.302 8.65008 39.3648C10.8909 39.4189 12.6721 38.8439 13.8035 37.7021L14.0923 37.4101L14.3698 37.7103C15.3868 38.8143 16.9327 39.4228 18.7237 39.4228C21.0043 39.4228 22.9545 38.7141 24.0746 37.4773L24.3804 37.1403L24.6679 37.4937C25.7164 38.7818 27.3369 39.4571 29.3535 39.449C31.9837 39.4373 34.4398 38.2286 36.0927 36.135L36.526 35.5861L36.7674 36.2428C37.7858 39.0117 40.5457 39.4243 42.1015 39.4252C47.3872 39.4252 49.6694 35.7989 51.638 29.949Z" fill="#FFED00"/>
<path fill-rule="evenodd" clip-rule="evenodd" d="M0.512695 57.2953V1.30707H56.5006V57.2953H0.512695ZM51.9888 34.0477C52.7203 32.5395 54.0966 28.7649 54.3515 26.7268L54.3546 26.7044C54.6641 24.2164 54.9581 21.862 53.2795 19.5225C52.0858 17.8599 50.0522 16.7442 46.958 16.7438C44.619 16.7438 42.5297 17.3775 40.8593 18.7666C39.4293 17.351 37.3782 16.7086 34.6173 16.7092C32.4566 16.7092 30.6433 17.2032 29.0641 18.1511C27.9178 17.2404 26.5723 16.6714 24.4286 16.6714C22.4854 16.6711 19.7571 16.7722 17.6988 18.5197C17.2232 17.549 16.2559 16.7868 13.5879 16.7868C11.1302 16.7868 9.12519 17.9494 7.81023 20.108C6.05451 22.9121 2.32795 31.0101 2.42308 35.4338C2.49406 38.7639 4.99119 41.058 8.60839 41.144C10.7822 41.1948 12.6333 40.7295 14.046 39.7919C15.3234 40.7124 16.9557 41.2096 18.7697 41.2096C20.9406 41.2099 22.899 40.6399 24.3511 39.6166C25.6666 40.6595 27.3927 41.2232 29.3454 41.2232C31.8787 41.2241 34.2324 40.3493 36.1339 38.6851C37.4308 40.3388 39.6532 41.1986 42.3512 41.1989C47.4027 41.1992 50.0264 38.0924 51.9888 34.0477Z" fill="#E3000B"/>
<path fill-rule="evenodd" clip-rule="evenodd" d="M52.969 18.0461C52.9679 17.8675 53.003 17.6907 53.0711 17.5257C53.1392 17.3606 53.2393 17.2107 53.3662 17.0843C53.4921 16.9581 53.6417 16.8579 53.8068 16.7897C53.9718 16.7214 54.1483 16.6863 54.3268 16.6864C54.5063 16.6861 54.6827 16.7211 54.8478 16.7893C55.0129 16.8575 55.1635 16.9575 55.2894 17.0839C55.4163 17.2102 55.5164 17.3602 55.5845 17.5253C55.6525 17.6905 55.6876 17.8674 55.6876 18.0461C55.6876 18.2248 55.6525 18.4018 55.5845 18.567C55.5164 18.7321 55.4163 18.8822 55.2894 19.0084C55.1635 19.1347 55.0129 19.2348 54.8478 19.303C54.6827 19.3711 54.5063 19.406 54.3268 19.4056C54.1483 19.4058 53.9718 19.3708 53.8068 19.3026C53.6417 19.2344 53.4921 19.1342 53.3652 19.0079C53.2393 18.8816 53.1392 18.7316 53.0711 18.5667C53.003 18.4016 52.9679 18.2247 52.969 18.0461ZM54.3278 16.9563C54.9324 16.9566 55.4235 17.4434 55.4225 18.048C55.4235 18.6527 54.9303 19.141 54.3278 19.141C54.1844 19.1408 54.043 19.1123 53.9099 19.0574C53.7779 19.0023 53.6582 18.9217 53.5571 18.8202C53.456 18.7186 53.3755 18.5982 53.3208 18.4658C53.2672 18.3333 53.2393 18.1913 53.2393 18.048C53.2383 17.9048 53.2661 17.7627 53.3208 17.6302C53.3755 17.4977 53.4549 17.3773 53.556 17.2758C53.6572 17.1743 53.7779 17.0938 53.9099 17.0391C54.043 16.9842 54.1844 16.9561 54.3278 16.9563ZM54.8571 18.4727L55.0191 18.7564L54.6672 18.7587L54.5548 18.5285C54.5042 18.4277 54.4403 18.3349 54.3629 18.2529C54.3072 18.1952 54.2566 18.1808 54.1318 18.1808L54.0802 18.1811L54.0791 18.7579H53.7882V17.3497H54.4898C54.7921 17.3497 54.9345 17.5184 54.9345 17.7416C54.9355 17.9544 54.791 18.1073 54.5537 18.1357V18.1435C54.6745 18.1855 54.7147 18.2248 54.8571 18.4727ZM54.0791 17.5685V17.9553H54.3732C54.5692 17.9553 54.6342 17.8595 54.6322 17.7599C54.6322 17.6357 54.5331 17.5676 54.3412 17.5676L54.0791 17.5685ZM40.5952 20.9304C41.9664 19.3068 43.9938 18.1438 46.9271 18.1438C52.0043 18.1438 53.3332 21.4635 53.166 24.6003C53.068 26.4855 52.4624 28.7314 52.0105 30.0748C50.0027 36.0428 47.5905 39.8167 42.1026 39.8161C39.5975 39.8167 37.305 38.8394 36.4022 36.3773C34.7525 38.4649 32.2309 39.8274 29.356 39.8417C27.1587 39.8524 25.45 39.0759 24.364 37.7421C23.0746 39.1652 20.8927 39.8167 18.7241 39.8174C16.7757 39.8161 15.1491 39.1374 14.0813 37.9778C12.8915 39.1777 11.022 39.8145 8.64094 39.7587C5.59079 39.6856 3.88686 37.8556 3.83073 35.3152C3.74685 31.3827 7.49209 23.2643 9.03589 20.7993C10.1015 19.0505 11.5816 18.1921 13.5472 18.1912C14.6264 18.1921 15.7345 18.3797 16.4196 19.1054C16.9829 19.7013 17.0734 20.2309 17.115 21.2334C18.8426 18.4497 21.7543 18.0713 24.4258 18.072C26.4699 18.072 28.1666 18.8371 28.8784 19.9938C30.2486 18.8292 32.2217 18.0903 34.5884 18.0903C37.011 18.0906 38.8165 18.6817 39.9401 19.9528C40.1877 20.2318 40.3641 20.445 40.5952 20.9304ZM13.8691 34.633C13.9593 33.6821 13.2472 32.6555 10.4057 33.1484C10.6879 32.5164 11.1075 31.65 11.5838 30.6665C13.1103 27.5146 15.2197 23.159 15.2594 21.455C15.2808 20.6149 14.9422 19.9143 13.5797 19.9149C12.1403 19.9143 11.2373 20.5164 10.4978 21.7314C8.89371 24.2929 5.48741 32.0199 5.55901 35.3597C5.59935 37.2688 7.0795 38.0223 8.72421 38.0608C10.9908 38.1134 13.6015 37.4772 13.8691 34.633ZM19.6541 30.5252C19.4649 31.0341 19.1093 32.0997 18.8221 33.2273C19.7546 32.9946 20.4529 32.8335 21.6499 32.8613C23.0147 32.8947 23.888 33.4596 23.8874 34.5888C23.8874 37.3234 20.8631 38.1267 18.7675 38.1273C16.4644 38.1273 14.441 36.8174 14.441 34.2988C14.441 31.3462 16.0412 26.8689 17.5432 23.8882C19.3868 20.2261 21.2717 19.7396 24.5166 19.7396C25.9434 19.7396 27.5859 20.3488 27.5859 21.6955C27.5859 23.5625 26.0071 24.2744 24.4387 24.3644C23.7682 24.4029 22.7382 24.4399 22.1222 24.3957C22.1222 24.3957 21.5985 25.1917 21.0453 26.6073C23.9481 26.1987 25.1801 26.8579 24.6903 28.5366C24.027 30.8062 22.0608 30.9562 19.6541 30.5252ZM32.253 24.4994C32.6359 23.9626 33.1483 23.4654 33.9342 23.4654C34.8969 23.4654 34.8041 23.9749 34.575 24.6258C33.9264 26.4795 35.8864 26.5284 36.3651 26.4906C38.0768 26.3573 39.0198 25.2516 39.2509 23.3683C39.5687 20.804 37.4082 19.8194 34.6699 19.8194C30.1051 19.8194 28.3132 22.6114 26.6038 26.6025C25.8009 28.4773 24.7896 31.6813 24.7899 33.7216C24.7896 36.5872 26.5333 38.1411 29.3434 38.1411C33.4471 38.1411 36.3465 34.8689 37.175 30.7916C37.4309 29.5369 37.7445 27.1823 34.5575 27.3134C32.9396 27.3802 31.9636 27.7371 31.449 29.3903C30.9194 31.0933 32.8402 31.1396 32.8402 31.1396C32.4537 32.9004 31.3223 33.9678 30.3141 33.9688C29.6848 33.9688 29.1123 33.6958 29.304 32.3641C29.5887 30.4171 31.4122 25.6814 32.253 24.4994ZM51.1737 26.8346C50.6898 29.2368 49.6045 32.0804 48.4262 34.1993C46.503 37.6557 44.1713 38.1399 42.1315 38.114C40.0938 38.0898 37.7951 37.3382 37.7786 34.1926C37.7662 31.9354 38.7391 28.7475 39.5656 26.6602C41.0079 22.874 42.4792 19.7861 47.1355 19.8412C52.5635 19.9045 51.5947 24.7327 51.1737 26.8346ZM44.3652 32.9937C45.1195 31.7153 47.2438 25.9168 47.3016 24.4669C47.3191 24.0445 47.249 23.5527 46.568 23.5448C46.1017 23.5382 45.6952 23.6287 45.3299 24.1927C44.5097 25.2589 42.1088 31.8172 42.1491 33.1254C42.1645 33.5958 42.4266 34.0066 43.0044 34.0066C43.6698 34.0072 44.0382 33.5495 44.3652 32.9937Z" fill="#333333"/>
</g>
</svg>
