<svg width="36" height="37" viewBox="0 0 36 37" fill="none" xmlns="http://www.w3.org/2000/svg">
<g clip-path="url(#clip0_2_245)">
<g clip-path="url(#clip1_2_245)">
<g clip-path="url(#clip2_2_245)">
<g clip-path="url(#clip3_2_245)">
<path d="M18 36.0344C27.9411 36.0344 36 27.9755 36 18.0344C36 8.0933 27.9411 0.0344238 18 0.0344238C8.05887 0.0344238 0 8.0933 0 18.0344C0 27.9755 8.05887 36.0344 18 36.0344Z" fill="#007BB5"/>
<path d="M12.375 12.4094H7.875V28.1594H12.375V12.4094Z" fill="white"/>
<path d="M23.0614 12.4094C19.9215 12.4094 19.3815 13.5547 19.125 14.6594V12.4094H14.625V28.1594H19.125V19.1594C19.125 17.7003 19.9159 16.9094 21.375 16.9094C22.7992 16.9094 23.625 17.6834 23.625 19.1594V28.1594H28.125V20.2844C28.125 15.7844 27.5389 12.4094 23.0614 12.4094Z" fill="white"/>
<path d="M10.125 11.2844C11.3676 11.2844 12.375 10.2771 12.375 9.03442C12.375 7.79178 11.3676 6.78442 10.125 6.78442C8.88236 6.78442 7.875 7.79178 7.875 9.03442C7.875 10.2771 8.88236 11.2844 10.125 11.2844Z" fill="white"/>
</g>
</g>
</g>
</g>
<defs>
<clipPath id="clip0_2_245">
<rect width="36" height="36" fill="white" transform="translate(0 0.0344238)"/>
</clipPath>
<clipPath id="clip1_2_245">
<rect width="36" height="36" fill="white" transform="translate(0 0.0344238)"/>
</clipPath>
<clipPath id="clip2_2_245">
<rect width="36" height="36" fill="white" transform="translate(0 0.0344238)"/>
</clipPath>
<clipPath id="clip3_2_245">
<rect width="36" height="36" fill="white" transform="translate(0 0.0344238)"/>
</clipPath>
</defs>
</svg>
