<svg width="173" height="18" viewBox="0 0 173 18" fill="none" xmlns="http://www.w3.org/2000/svg">
<mask id="mask0_2_178" style="mask-type:luminance" maskUnits="userSpaceOnUse" x="0" y="0" width="173" height="18">
<path d="M172.651 0.763977H0.349243V17.8372H172.651V0.763977Z" fill="white"/>
</mask>
<g mask="url(#mask0_2_178)">
<path d="M10.5572 17.097L14.3753 6.03726V17.097H17.1841V1.73694H13.0151L9.0214 12.7964L5.02752 1.73694H0.858643V17.097H3.66716V6.03726L7.48524 17.097H10.5572Z" fill="#333333"/>
<path d="M23.5913 1.73694H20.7827V17.0965H23.5913V1.73694Z" fill="#333333"/>
<path d="M44.1156 17.0965V1.73694H46.9242V8.01264H54.0561V1.73694H56.8647V17.0965H54.0561V10.8218H46.9242V17.0965H44.1156Z" fill="#333333"/>
<path d="M68.7577 10.843H64.5881L66.6733 5.55491L68.7577 10.843ZM74.2876 17.0965L68.1209 1.73694H65.2247L59.0583 17.0965H62.0862L63.4911 13.6084H69.8545L71.2587 17.0965H74.2876Z" fill="#333333"/>
<path d="M79.29 4.54556V8.01264H87.1453V10.8218H79.29V14.2887H87.1453V17.0965H76.4814V1.73694H87.1453V4.54556H79.29Z" fill="#333333"/>
<path d="M100.575 14.2887V17.0965H91.1831V1.73694H93.9916V14.2887H100.575Z" fill="#333333"/>
<path d="M111.46 17.0965V1.73694H114.27V8.14429L120.501 1.73694H124.231L118.241 7.96879L124.758 17.0965H121.291L116.244 10.031L114.27 12.0505V17.0965H111.46Z" fill="#333333"/>
<path d="M138.165 9.41682C138.165 12.3139 135.818 14.6621 132.92 14.6621C130.024 14.6621 127.676 12.3139 127.676 9.41682C127.676 6.5205 130.024 4.17287 132.92 4.17287C135.818 4.17266 138.165 6.5205 138.165 9.41682ZM140.974 9.41682C140.974 4.96236 137.374 1.36353 132.92 1.36353C128.465 1.36353 124.867 4.96226 124.867 9.41682C124.867 13.8715 128.465 17.4701 132.92 17.4701C137.374 17.47 140.974 13.8714 140.974 9.41682Z" fill="#333333"/>
<path d="M153.964 6.89381C153.964 8.18865 152.91 9.24124 151.616 9.24124H147.029V4.54556H151.616C152.91 4.54556 153.964 5.59876 153.964 6.89381ZM157.299 17.0965L154.03 11.4583C155.654 10.6024 156.772 8.86847 156.772 6.89371C156.772 4.04114 154.468 1.73694 151.616 1.73694H144.221V17.0965H147.029V12.0505H151.111L154.008 17.0965H157.299Z" fill="#333333"/>
<path d="M165.484 17.47C162.83 17.47 160.086 16.3739 158.616 14.2449L160.985 12.5329C162.105 14.0468 163.729 14.7937 165.484 14.7937C167.02 14.7937 168.973 14.3327 168.973 12.8399C168.973 11.1509 166.12 10.887 164.848 10.5799C162.324 9.96553 159.471 9.41664 159.471 6.12557C159.471 2.89961 162.565 1.36334 165.418 1.36334C168.052 1.36334 170.246 2.30677 171.848 4.41318L169.543 6.14735C168.512 4.83053 167.284 4.04083 165.418 4.04083C163.75 4.04083 162.499 4.63305 162.499 5.70823C162.499 7.44167 164.979 7.46375 167.108 7.99035C169.368 8.53924 172.002 9.21896 172.002 12.423C172.001 16.1758 168.556 17.47 165.484 17.47Z" fill="#333333"/>
<path d="M38.1144 12.3021C37.3045 13.7236 36.1723 14.6621 34.0999 14.6621C31.203 14.6621 28.9797 12.314 28.9797 9.41661C28.9797 6.52029 31.203 4.17276 34.0999 4.17276C36.2172 4.17276 37.4897 5.23773 38.2644 6.8163H41.3343C40.5204 3.64255 37.5812 1.36383 34.0372 1.36383C29.5829 1.36383 26.1709 4.96225 26.1709 9.41661C26.1709 13.8714 29.5829 17.4702 34.0372 17.4702C37.4739 17.4702 40.3094 15.434 41.2423 12.3022L38.1144 12.3021Z" fill="#333333"/>
</g>
</svg>
