<svg width="127" height="45" viewBox="0 0 127 45" fill="none" xmlns="http://www.w3.org/2000/svg">
<path d="M14.4482 44.465C10.6977 44.3177 7.6293 43.3027 5.22998 41.4176C4.77209 41.0576 3.68091 39.9778 3.31495 39.5225C2.34191 38.3126 1.68046 37.1351 1.23928 35.8287C-0.118391 31.8071 0.58041 26.5299 3.23788 20.7383C5.51319 15.7799 9.02412 10.8622 15.1495 4.0512C16.0519 3.04896 18.7388 0.117981 18.7562 0.117981C18.7626 0.117981 18.6162 0.368798 18.4319 0.674298C16.8392 3.31258 15.4765 6.4202 14.734 9.11058C13.5414 13.4274 13.6852 17.1321 15.1553 20.0047C16.1694 21.9838 17.9078 23.6979 19.8627 24.6455C23.285 26.3038 28.2955 26.441 34.4145 25.0469C34.8357 24.9504 55.7114 19.4699 80.8055 12.8679C105.899 6.26523 126.433 0.867337 126.437 0.871773C126.444 0.877551 68.1369 25.5519 37.869 38.3526C33.0755 40.3793 31.7936 40.8911 29.5401 41.6736C23.7795 43.6743 18.6194 44.6288 14.4482 44.465Z" fill="#333333"/>
</svg>
