<svg width="36" height="37" viewBox="0 0 36 37" fill="none" xmlns="http://www.w3.org/2000/svg">
<g clip-path="url(#clip0_2_258)">
<g clip-path="url(#clip1_2_258)">
<g clip-path="url(#clip2_2_258)">
<g clip-path="url(#clip3_2_258)">
<path d="M18 36.0344C27.9411 36.0344 36 27.9755 36 18.0344C36 8.0933 27.9411 0.0344238 18 0.0344238C8.05887 0.0344238 0 8.0933 0 18.0344C0 27.9755 8.05887 36.0344 18 36.0344Z" fill="#1CB7EB"/>
<path d="M27.6 11.5844C26.925 11.9594 26.1 12.1844 25.35 12.2594C26.175 11.7344 26.775 10.9094 27.075 9.9344C26.325 10.3844 25.5 10.7594 24.525 10.9844C23.775 10.1594 22.8 9.6344 21.675 9.6344C19.5 9.6344 17.7 11.5094 17.7 13.9094C17.7 14.2094 17.7 14.5844 17.775 14.8844C14.475 14.7344 11.55 13.0094 9.60005 10.4594C9.22505 11.0594 9.07505 11.8094 9.07505 12.6344C9.07505 14.1344 9.75005 15.4094 10.8 16.1594C10.125 16.1594 9.52505 15.9344 9.00005 15.6344V15.7094C9.00005 17.7344 10.35 19.4594 12.15 19.9094C11.85 19.9844 11.475 20.0594 11.1 20.0594C10.875 20.0594 10.575 20.0594 10.35 19.9844C10.875 21.7094 12.3 22.9094 14.025 22.9094C12.675 24.0344 10.95 24.7094 9.15005 24.7094C8.85005 24.7094 8.55005 24.7094 8.17505 24.6344C9.90005 25.8344 12 26.5844 14.25 26.5844C21.525 26.5844 25.5 20.1344 25.5 14.5094C25.5 14.3594 25.5 14.1344 25.5 13.9844C26.4 13.2344 27.075 12.4844 27.6 11.5844Z" fill="white"/>
</g>
</g>
</g>
</g>
<defs>
<clipPath id="clip0_2_258">
<rect width="36" height="36" fill="white" transform="translate(0 0.0344238)"/>
</clipPath>
<clipPath id="clip1_2_258">
<rect width="36" height="36" fill="white" transform="translate(0 0.0344238)"/>
</clipPath>
<clipPath id="clip2_2_258">
<rect width="36" height="36" fill="white" transform="translate(0 0.0344238)"/>
</clipPath>
<clipPath id="clip3_2_258">
<rect width="36" height="36" fill="white" transform="translate(0 0.0344238)"/>
</clipPath>
</defs>
</svg>
